<svg xmlns="http://www.w3.org/2000/svg"><symbol id="icon-home" viewBox="0 0 32 32"><path d="M32 19l-6-6V4h-4v5l-6-6L0 19v1h4v10h10v-6h4v6h10V20h4z"/></symbol><symbol id="icon-mobile-only" viewBox="0 0 240 240"><title>chart</title><desc>Created with Sketch.</desc><g xmlns="http://www.w3.org/2000/svg" fill="none" fill-rule="evenodd"><g><g stroke-width="40" transform="translate(20 20)"><circle stroke="#FA7176" cx="100" cy="100" r="100"/><path d="M100 0C44.772 0 0 44.772 0 100s44.772 100 100 100c37.412 0 70.025-20.544 87.174-50.966" stroke="#343D4D"/></g><g font-family="PT Serif" fill="#272727"><text font-size="72" font-weight="bold" transform="translate(20 20) translate(1 53)"><tspan x="59.32" y="73">31</tspan></text><text font-size="24" transform="translate(20 20) translate(1 53)"><tspan x="136" y="41">%</tspan></text></g></g></g></symbol><symbol id="icon-speed" viewBox="0 0 32 32"><path d="M26 24h6c0-8.837-7.163-16-16-16S0 15.163 0 24h2c0-6.627 5.373-12 12-12 3.526 0 6.696 1.52 8.89 3.94l-6.263 5.012c-.203-.042-.413-.064-.628-.064-1.72 0-3.112 1.393-3.112 3.11s1.393 3.112 3.11 3.112c1.72 0 3.112-1.393 3.112-3.11 0-.216-.022-.426-.063-.63l4.885-6.106C25.237 19.184 26 21.502 26 24z"/></symbol></svg>