<svg xmlns="http://www.w3.org/2000/svg"><symbol id="icon-email" viewBox="0 0 32 32"><path d="M20.35 16.574L32 24.61V6.11zM0 6.112V24.61l11.65-8.037zm16 14.37l-2.78-2.498L0 26h32l-13.22-8.016zM31.04 6H.96L16 17.308z"/></symbol><symbol id="icon-logo" viewBox="0 0 32 32"><path d="M28 18v4.13c-2.516 2.57-6.032 5.053-10 5.704V16h6v-2l-6-2.343c2.33-.824 4-3.046 4-5.658 0-3.315-2.686-6-6-6s-6 2.685-6 6c0 2.61 1.67 4.833 4 5.657L8 14v2h6v11.833C10.032 27.18 6.516 24.7 4 22.13V18H0v2c0 4 8 12 16 12s16-8 16-12v-2h-4zM18 6c0 1.105-.895 2-2 2s-2-.895-2-2 .895-2 2-2 2 .895 2 2z"/></symbol><symbol id="icon-rss" viewBox="0 0 32 32"><path d="M4.26 23.467C1.91 23.467 0 25.384 0 27.72c0 2.348 1.91 4.243 4.26 4.243 2.357 0 4.264-1.895 4.264-4.244 0-2.337-1.907-4.253-4.265-4.253zM.004 10.873v6.133c3.993 0 7.75 1.562 10.577 4.39 2.825 2.823 4.384 6.596 4.384 10.604h6.16c0-11.65-9.478-21.127-21.12-21.127zM.012 0v6.136C14.255 6.136 25.848 17.74 25.848 32H32C32 14.36 17.648 0 .012 0z"/></symbol><symbol id="icon-search" viewBox="0 0 32 32"><path d="M31.008 27.23l-7.58-6.446c-.784-.705-1.622-1.03-2.3-.998C22.92 17.69 24 14.97 24 12 24 5.37 18.627 0 12 0S0 5.37 0 12c0 6.626 5.374 12 12 12 2.973 0 5.692-1.082 7.788-2.87-.03.676.293 1.514.998 2.298l6.447 7.58c1.105 1.226 2.908 1.33 4.008.23s.997-2.903-.23-4.007zM12 20c-4.418 0-8-3.582-8-8s3.582-8 8-8 8 3.582 8 8-3.582 8-8 8z"/></symbol><symbol id="icon-twitter" viewBox="0 0 32 32"><path d="M32 6.076c-1.177.522-2.443.875-3.77 1.034 1.354-.813 2.395-2.1 2.886-3.632-1.27.752-2.674 1.3-4.17 1.593C25.75 3.796 24.044 3 22.157 3c-3.627 0-6.566 2.94-6.566 6.565 0 .515.058 1.016.17 1.496-5.456-.275-10.294-2.89-13.532-6.86-.565.97-.89 2.096-.89 3.3 0 2.278 1.16 4.287 2.922 5.465-1.076-.034-2.088-.33-2.974-.82v.082c0 3.18 2.262 5.834 5.265 6.437-.55.15-1.13.23-1.73.23-.422 0-.833-.04-1.234-.118.835 2.608 3.26 4.506 6.133 4.56-2.248 1.76-5.08 2.81-8.155 2.81-.53 0-1.052-.032-1.566-.093 2.904 1.863 6.355 2.95 10.063 2.95 12.076 0 18.68-10.004 18.68-18.68 0-.285-.007-.568-.02-.85C30.006 8.55 31.12 7.394 32 6.077z"/></symbol></svg>