<svg xmlns="http://www.w3.org/2000/svg"><symbol id="icon-email" viewBox="0 0 32 32"><path stroke="#449FDB" d="M0 0"/><path d="M20.35 16.574L32 24.61V6.11zM0 6.112V24.61l11.65-8.037zm16 14.37l-2.78-2.498L0 26h32l-13.22-8.016zM31.04 6H.96L16 17.308z"/></symbol><symbol id="icon-emseek" viewBox="0 0 32 32"><path stroke="#449FDB" d="M0 0"/><path d="M0 6l10-4v24L0 30zm22 0v24l-10-3.333v-24zm10-4v24l-8 3.2v-24z"/></symbol><symbol id="icon-github" viewBox="0 0 32 32"><path stroke="#449FDB" d="M0 0"/><path d="M16 0C7.163 0 0 7.163 0 16s7.163 16 16 16 16-7.163 16-16S24.837 0 16 0zm9.502 25.502c-1.235 1.235-2.672 2.204-4.272 2.88-.406.173-.82.324-1.238.454v-2.398c0-1.26-.432-2.188-1.297-2.78.542-.053 1.04-.126 1.492-.22s.932-.23 1.438-.406.958-.388 1.36-.633.785-.564 1.155-.954.68-.833.93-1.328.448-1.09.594-1.78.22-1.457.22-2.29c0-1.615-.527-2.99-1.58-4.125.48-1.25.428-2.61-.155-4.078l-.392-.047c-.27-.03-.758.083-1.46.344s-1.493.688-2.368 1.28c-1.24-.343-2.526-.515-3.86-.515-1.343 0-2.624.172-3.843.516-.552-.375-1.075-.685-1.57-.93s-.89-.41-1.188-.5-.574-.143-.83-.164-.418-.027-.49-.017-.126.02-.157.03c-.583 1.48-.635 2.84-.156 4.08-1.052 1.134-1.578 2.51-1.578 4.124 0 .833.072 1.596.218 2.29s.344 1.285.594 1.78.56.938.93 1.328.755.708 1.156.953.854.456 1.36.633.983.314 1.437.407.95.167 1.492.22c-.854.582-1.28 1.51-1.28 2.78v2.445c-.473-.14-.938-.306-1.395-.5-1.6-.677-3.037-1.646-4.272-2.88s-2.204-2.673-2.88-4.273c-.7-1.656-1.056-3.415-1.056-5.23s.355-3.576 1.055-5.23c.676-1.6 1.645-3.038 2.88-4.273s2.672-2.204 4.272-2.88c1.655-.7 3.415-1.056 5.23-1.056s3.575.356 5.23 1.056c1.6.677 3.037 1.646 4.272 2.88s2.204 2.673 2.88 4.273c.7 1.654 1.056 3.414 1.056 5.23s-.355 3.574-1.055 5.23c-.677 1.6-1.646 3.036-2.88 4.27z"/></symbol><symbol id="icon-heart" viewBox="0 0 32 32"><path stroke="#449FDB" d="M0 0"/><path d="M23.6 2c-3.363 0-6.258 2.736-7.6 5.594C14.66 4.736 11.765 2 8.4 2 3.763 2 0 5.764 0 10.4c0 9.434 9.516 11.907 16 21.233 6.13-9.268 16-12.1 16-21.232C32 5.765 28.237 2 23.6 2z"/></symbol><symbol id="icon-jetpack" viewBox="0 0 32 32"><path stroke="#449FDB" d="M0 0"/><path d="M22 2L12 12H6l-6 8s6.357-1.77 10.065-.94L0 32l13.184-10.255C15.024 25.953 12 32 12 32l8-6v-6l10-10 2-10-10 2z"/></symbol><symbol id="icon-kraken" viewBox="0 0 32 32"><path stroke="#449FDB" d="M0 0"/><path d="M19.484 8.73c.22 5.004-3.96 9.227-9.34 9.432S.23 14.477.01 9.472C-.212 4.47 3.968.247 9.348.043c5.295-.203 9.794 3.57 10.125 8.492zm-13.85 6.518c-.062.31-.092.627-.113.943-.015.275-.016.55-.017.823l.004.66c-.002.26-.005.52-.002.78 0 .23.003.464 0 .696 0 .218.004.437 0 .656.02.194.055.392.125.575.102.207.19.43.323.616.105.165.225.317.332.48.132.23.254.466.42.674.125.162.234.31.394.442.242.2.502.378.78.527.198.102.425.132.63.21.11.043.21.103.317.15.327.16.68.278.998.454.223.138.48.204.713.32.07.036.135.077.202.115l.21.103c.3.196.606.395.826.682.183.298.242.65.33.985.117.32.293.615.516.87.156.22.354.393.567.554.315.23.68.363 1.042.502.536.223 1.12.313 1.69.402.453.066.91.088 1.367.094.462.01.925-.018 1.384.05.688.075 1.338.318 2 .503.54.162 1.086.317 1.59.57l-1.668 1.097c-.49-.243-1.01-.412-1.536-.56-.657-.19-1.31-.41-1.995-.47-.465-.033-.93-.01-1.397-.02-.455-.02-.91-.06-1.358-.134-.584-.103-1.178-.196-1.728-.425-.38-.144-.754-.298-1.08-.544-.227-.17-.436-.353-.596-.59-.23-.288-.42-.605-.548-.953-.08-.307-.147-.628-.306-.906-.21-.256-.473-.455-.76-.62-.375-.187-.76-.35-1.137-.533-.327-.155-.658-.302-.99-.444-.316-.138-.65-.225-.96-.377-.282-.166-.557-.347-.81-.553-.164-.144-.29-.303-.414-.48-.16-.218-.288-.456-.43-.686-.105-.164-.234-.308-.332-.476-.133-.203-.23-.43-.34-.647-.097-.202-.118-.43-.16-.65-.005-.218-.002-.437 0-.656-.004-.233-.002-.465 0-.698.002-.26-.002-.52-.004-.778 0-.22 0-.443.002-.664 0-.278 0-.556.014-.834.02-.32.058-.64.095-.957l1.81-.884zm3.552 1.644c.2.913.473 1.81.904 2.642.116.224.248.438.372.657.567.87 1.198 1.728 2.04 2.35.543.32 1.158.47 1.76.63.59.142 1.18.27 1.784.34.375.007.724.075 1.055.254.47.25.825.652 1.21 1.008.348.295.683.595.966.953.238.25.473.5.784.656.3.128.624.144.945.155.388.015.777-.03 1.16.047.544.127 1.085.27 1.636.374.46.082.924.108 1.39.12.28.006.564-.003.846-.004.344-.002.688.005 1.032.006l.557.002-1.598 1.16c-.38.002-.192 0-.564.004-.35.002-.702.01-1.053.01-.28.002-.56-.004-.84-.012-.465-.02-.93-.068-1.387-.16-.55-.112-1.094-.253-1.645-.355-.384-.034-.77-.006-1.154-.026-.344-.018-.687-.067-.997-.228-.318-.19-.582-.447-.824-.726-.273-.35-.605-.64-.93-.936-.375-.346-.727-.73-1.2-.946-.323-.136-.658-.182-1.008-.208-.6-.092-1.19-.23-1.78-.372-.624-.167-1.264-.326-1.802-.697-.823-.677-1.435-1.566-2.006-2.457-.335-.58-.437-.72-.71-1.325-.287-.637-.457-1.312-.706-1.963l1.765-.948zm3.25-.574c1.476.528 3.047.688 4.587.927 1.008.116 1.995.322 2.938.698.524.258.716.773.917 1.283.192.567.35 1.146.688 1.647.227.336.464.663.73.97.222.253.42.52.664.752.202.147.406.29.6.45.213.165.47.197.73.22.273.018.546.017.82.012h.722l.713-.003c.266.004.532 0 .798.003.332-.017.654.008.974.098.188.05.37.11.56.158l-1.638 1.128c-.19-.048-.377-.102-.567-.148-.315-.06-.63-.07-.95-.058-.27.003-.537 0-.806.003h-.707c-.243 0-.486.002-.73.004-.274-.003-.55-.006-.823-.036-.29-.042-.565-.118-.797-.31-.203-.154-.408-.305-.604-.468-.245-.24-.45-.51-.667-.774-.267-.317-.52-.643-.738-.996-.326-.523-.494-1.107-.7-1.685-.184-.457-.353-.922-.826-1.15-.903-.382-1.863-.574-2.83-.72-1.57-.267-3.157-.46-4.698-.878l1.638-1.122zm3.527-2.13c.556.03 1.113-.01 1.668.032.567.083 1.112.263 1.62.52.403.198.775.447 1.152.687.307.2.595.417.938.55.304.106.625.11.943.118.43.008.863.002 1.294 0 .48 0 .956-.02 1.428.068.575.058 1.038.377 1.52.666.46.262.957.45 1.44.667.286.107.56.242.858.313.218.046.443.042.664.044.196-.013.377.09.548.173l-1.668 1.11c-.165-.066-.324-.122-.505-.106-.234-.004-.47-.01-.695-.084-.296-.092-.575-.23-.86-.353-.48-.23-.986-.408-1.438-.693-.472-.277-.93-.55-1.49-.597-.47-.062-.942-.038-1.414-.038-.435.002-.87.003-1.304-.002-.337-.013-.673-.04-.986-.178-.34-.158-.64-.376-.953-.58-.366-.242-.732-.483-1.126-.677-.495-.238-1.025-.403-1.574-.456-.563-.026-1.127-.015-1.69 0l1.628-1.185zm1.108-2.683c.804.095 1.615.103 2.423.117.787.015 1.573-.013 2.358.048.586.11 1.087.423 1.56.767.41.327.832.637 1.25.953.304.24.625.405 1.003.487.336.052.677.05 1.017.05.29.025.57-.037.854-.08.33-.02.65-.078.974-.132.275-.047.554-.06.833-.067.316.004.633-.018.946.025.32.04.614.182.917.283.184.114.376.185.588.22.116.01.055.007.184.012l-1.636 1.17c-.144-.016-.077-.005-.204-.032-.21-.057-.398-.153-.592-.248-.288-.106-.576-.223-.886-.246-.312-.017-.625-.006-.938.002-.272.012-.542.034-.81.083-.325.055-.65.09-.977.132-.29.046-.578.065-.872.05-.35-.005-.7-.012-1.04-.09-.387-.115-.724-.308-1.04-.56-.416-.31-.816-.644-1.233-.956-.453-.32-.94-.606-1.5-.678-.773-.06-1.546-.044-2.32-.062-.833-.018-1.668-.028-2.5-.092l1.644-1.158zm.822-2.517c.718-.166 1.445-.295 2.178-.375.754-.044 1.513-.15 2.265-.045.547.12 1.07.33 1.558.606.46.25.95.435 1.434.635.404.208.833.352 1.256.513.376.095.732.248 1.102.362.3.09.61.106.92.115.29.006.58.004.868 0 .247.035.446-.06.664-.152.614-.233 1.727-.922-1.432.842-.037.02.067-.052.1-.078.075-.062.15-.127.225-.19.184-.155.373-.304.543-.474.195-.19.244-.453.28-.713.034-.285.037-.572.033-.858V8.35c.01-.215-.048-.416-.124-.613-.04-.123-.07-.25-.096-.377l1.772-.946c.02.116.043.232.08.344.087.217.164.443.153.68 0 .277.002.553.004.828-.005.294.004.59-.022.883-.036.28-.06.576-.22.82-.162.19-.355.34-.54.507-.11.078-.205.197-.318.265-.855.518-1.268.872-2.017 1.15-.23.086-.464.1-.708.09-.292 0-.583 0-.874-.01-.32-.02-.64-.057-.944-.164-.367-.126-.733-.258-1.104-.372-.424-.157-.84-.326-1.246-.53-.49-.2-.993-.38-1.45-.65-.474-.256-.98-.455-1.514-.545-.735-.08-1.477.003-2.21.066-.747.097-1.487.233-2.214.426l1.594-1.213zm-7.045 7.78c.28.25.59.454.908.65.203.104.338.285.5.44.052.05.226.184.28.227.278.238.528.504.783.765.23.21.427.446.62.688.187.198.45.294.688.417.212.174.473.235.714.343.22.082.434.17.665.218.248.108.506.145.773.167.238.075.45.19.696.247.23.017.454.083.67.164.28.073.41.168.567.41.14.213.155.47.246.7.084.175.122.41.314.494.164.12.303.268.452.405.16.106.313.218.5.262.22.054.434.122.66.157l-1.65 1.153c-.227-.05-.45-.12-.674-.18-.2-.08-.38-.196-.548-.332-.143-.13-.27-.276-.437-.376-.195-.156-.28-.374-.37-.602-.09-.22-.11-.458-.228-.666-.133-.196-.27-.233-.493-.3-.22-.062-.44-.116-.666-.153-.227-.07-.435-.192-.67-.224-.273-.034-.533-.098-.792-.187-.234-.064-.46-.152-.685-.242-.254-.095-.488-.216-.717-.36-.264-.133-.546-.257-.737-.49-.183-.24-.385-.463-.6-.675-.25-.255-.496-.514-.767-.746-.265-.21-.488-.467-.776-.646-.318-.21-.626-.432-.927-.666l1.702-1.064z"/></symbol><symbol id="icon-logo" viewBox="0 0 32 32"><path stroke="#449FDB" d="M0 0"/><path d="M28 18v4.13c-2.516 2.57-6.032 5.053-10 5.704V16h6v-2l-6-2.343c2.33-.824 4-3.046 4-5.658 0-3.315-2.686-6-6-6s-6 2.685-6 6c0 2.61 1.67 4.833 4 5.657L8 14v2h6v11.833C10.032 27.18 6.516 24.7 4 22.13V18H0v2c0 4 8 12 16 12s16-8 16-12v-2h-4zM18 6c0 1.105-.895 2-2 2s-2-.895-2-2 .895-2 2-2 2 .895 2 2z"/></symbol><symbol id="icon-paws" viewBox="0 0 32 32"><path stroke="#449FDB" d="M0 0"/><path d="M16.698 17.25c-3.916 0-7.667 1.752-10.087 8.804s2.92 6.49 6.29 5.033c3.264-1.41 4.506-1.626 8.436.242 3.7 1.758 6.862-.078 5.543-3.93s-5.765-10.15-10.182-10.15zM9.29 1.362c-2.233.534-3.413 3.567-2.636 6.776s3.216 5.378 5.45 4.844l.03-.008c2.233-.534 3.413-3.567 2.636-6.776-.334-1.38-.977-2.57-1.778-3.433-1.06-1.142-2.4-1.715-3.67-1.41-.01 0-.022.004-.032.007zm12.933-.112c-2.247-.47-4.61 1.77-5.28 5.003-.384 1.858-.125 3.64.59 4.91.53.938 1.312 1.595 2.267 1.795l.024.005c2.247.47 4.61-1.77 5.28-5.003s-.61-6.235-2.857-6.705l-.024-.005zM.643 17.93c1.234 2.854 3.836 4.477 5.81 3.624 1.13-.488 1.81-1.68 1.954-3.147.107-1.096-.085-2.345-.613-3.566l-.002-.004c-1.234-2.855-3.836-4.478-5.81-3.625S-.595 15.07.64 17.926v.005zm24.905 3.12c1.124.492 2.454.18 3.62-.71.878-.67 1.662-1.665 2.196-2.89 1.242-2.85.653-5.863-1.317-6.727l-.026-.01c-1.97-.866-4.573.745-5.815 3.597s-.653 5.864 1.317 6.728l.026.01z"/></symbol><symbol id="icon-petfinder" viewBox="0 0 32 32"><path stroke="#449FDB" d="M0 0"/><path d="M8.914 30.426c-.396-.79-.72-1.452-.72-1.47s.675.07 1.5.193 1.517.208 1.538.187-.39-3.49-.916-7.708l-.954-7.67-2.74-10.102-.984.98c-.68.68-1 .94-1.037.844-.028-.076-.304-.925-.614-1.888-.466-1.447-.536-1.75-.407-1.75.085 0 3.26-.28 7.058-.623C16.745.87 17.8.8 19.794.797h2.253L25.5 2.068l3.097 3.98.335 4.894-1.033 1.854c-.57 1.02-1.063 1.886-1.1 1.926s-.97.508-2.074 1.04l-2.008.966-2.253-.157c-1.24-.087-3-.268-3.91-.404s-1.686-.22-1.72-.187c-.052.052 3.007 11.54 3.102 11.65.018.022.724-.29 1.57-.694s1.57-.735 1.612-.735c.098 0 .776 2.426.698 2.502-.032.03-1.362.172-2.955.314l-2.896.258-3.124 1.292c-1.718.71-3.143 1.292-3.167 1.292s-.368-.647-.764-1.437zM19.7 14.59l1.486-.496.582-.632c1.29-1.4 1.273-1.376 1.582-2.37.162-.52.396-1.594.518-2.385l.223-1.438-.527-1.008c-.474-.904-.637-1.112-1.596-2.036L20.9 3.196 17.457 1.92l-1.755.422c-1.547.372-1.755.445-1.758.614-.003.21.882 11.78.903 11.81.03.045 2.36.296 2.837.307.4.01.884-.106 2.013-.482z"/></symbol><symbol id="icon-rss" viewBox="0 0 32 32"><path stroke="#449FDB" d="M0 0"/><path d="M4.26 23.467C1.91 23.467 0 25.384 0 27.72c0 2.348 1.91 4.243 4.26 4.243 2.357 0 4.264-1.895 4.264-4.244 0-2.337-1.907-4.253-4.265-4.253zM.004 10.873v6.133c3.993 0 7.75 1.562 10.577 4.39 2.825 2.823 4.384 6.596 4.384 10.604h6.16c0-11.65-9.478-21.127-21.12-21.127zM.012 0v6.136C14.255 6.136 25.848 17.74 25.848 32H32C32 14.36 17.648 0 .012 0z"/></symbol><symbol id="icon-search" viewBox="0 0 32 32"><path stroke="#449FDB" d="M0 0"/><path d="M31.008 27.23l-7.58-6.446c-.784-.705-1.622-1.03-2.3-.998C22.92 17.69 24 14.97 24 12 24 5.37 18.627 0 12 0S0 5.37 0 12s5.374 12 12 12c2.973 0 5.692-1.082 7.788-2.87-.03.676.293 1.514.998 2.298l6.447 7.58c1.105 1.226 2.908 1.33 4.008.23s.997-2.903-.23-4.007zM12 20c-4.418 0-8-3.582-8-8s3.582-8 8-8 8 3.582 8 8-3.582 8-8 8z"/></symbol><symbol id="icon-smoothscroll" viewBox="0 0 32 32"><path stroke="#449FDB" d="M0 0"/><path d="M29.794 2.333l-.126-.126c-2.942-2.942-7.756-2.942-10.698 0l-6.816 6.817c-2.942 2.942-2.942 7.756 0 10.697l.126.127c.245.245.505.466.773.67l2.495-2.494c-.29-.172-.566-.377-.816-.627l-.126-.126c-1.597-1.597-1.597-4.196 0-5.793l6.816-6.816c1.597-1.596 4.196-1.596 5.793 0l.126.127c1.598 1.597 1.598 4.197 0 5.793l-3.083 3.084c.535 1.322.79 2.73.767 4.137l4.77-4.768c2.94-2.942 2.94-7.756 0-10.697zm-10.074 9.82c-.245-.244-.505-.465-.773-.67l-2.495 2.496c.29.17.566.376.816.626l.126.126c1.597 1.597 1.597 4.196 0 5.793l-6.817 6.817c-1.597 1.597-4.196 1.597-5.793 0l-.126-.126c-1.597-1.598-1.597-4.196 0-5.793l3.084-3.084c-.535-1.323-.79-2.732-.767-4.138l-4.77 4.77c-2.94 2.94-2.94 7.755 0 10.697l.127.125c2.942 2.942 7.756 2.942 10.698 0l6.816-6.816c2.942-2.943 2.942-7.757 0-10.7l-.126-.125z"/></symbol><symbol id="icon-tonyluong" viewBox="0 0 32 32"><path stroke="#449FDB" d="M0 0"/><path d="M9.5 19c0 3.59 2.91 6.5 6.5 6.5s6.5-2.91 6.5-6.5-2.91-6.5-6.5-6.5-6.5 2.91-6.5 6.5zM30 8h-7c-.5-2-1-4-3-4h-8c-2 0-2.5 2-3 4H2c-1.1 0-2 .9-2 2v18c0 1.1.9 2 2 2h28c1.1 0 2-.9 2-2V10c0-1.1-.9-2-2-2zM16 27.875c-4.902 0-8.875-3.973-8.875-8.875s3.973-8.875 8.875-8.875 8.875 3.973 8.875 8.875-3.973 8.875-8.875 8.875zM30 14h-4v-2h4v2z"/></symbol><symbol id="icon-twitter" viewBox="0 0 32 32"><path stroke="#449FDB" d="M0 0"/><path d="M32 6.076c-1.177.522-2.443.875-3.77 1.034 1.354-.813 2.395-2.1 2.886-3.632-1.27.752-2.674 1.3-4.17 1.593C25.75 3.796 24.044 3 22.157 3c-3.627 0-6.566 2.94-6.566 6.565 0 .515.058 1.016.17 1.496-5.456-.275-10.294-2.89-13.532-6.86-.565.97-.89 2.096-.89 3.3 0 2.278 1.16 4.287 2.922 5.465-1.076-.034-2.088-.33-2.974-.82v.082c0 3.18 2.262 5.834 5.265 6.437-.55.15-1.13.23-1.73.23-.422 0-.833-.04-1.234-.118.835 2.608 3.26 4.506 6.133 4.56-2.248 1.76-5.08 2.81-8.155 2.81-.53 0-1.052-.032-1.566-.093 2.904 1.863 6.355 2.95 10.063 2.95 12.076 0 18.68-10.004 18.68-18.68 0-.285-.007-.568-.02-.85C30.006 8.55 31.12 7.394 32 6.077z"/></symbol><symbol id="icon-wpwebapps" viewBox="0 0 32 32"><path stroke="#449FDB" d="M0 0"/><path d="M4 16c0 4.626 2.76 8.624 6.763 10.518L5.04 11.244C4.372 12.697 4 14.306 4 16zm20.1-.59c0-1.445-.532-2.445-.988-3.223-.608-.963-1.18-1.778-1.18-2.74 0-1.075.837-2.075 2.016-2.075.053 0 .104.006.155.01-2.135-1.906-4.98-3.07-8.103-3.07-4.192 0-7.88 2.095-10.026 5.268.282.01.547.014.772.014 1.255 0 3.198-.15 3.198-.15.647-.036.723.89.077.964 0 0-.65.074-1.372.11l4.37 12.66 2.626-7.67-1.87-4.99c-.645-.036-1.258-.11-1.258-.11-.647-.037-.57-1 .076-.963 0 0 1.98.15 3.16.15 1.255 0 3.198-.15 3.198-.15.647-.037.723.89.076.963 0 0-.65.074-1.373.11l4.337 12.564 1.197-3.895c.518-1.617.913-2.778.913-3.778zm-7.89 1.612l-3.6 10.19c1.075.307 2.212.475 3.39.475 1.397 0 2.738-.235 3.985-.663-.032-.05-.062-.103-.086-.16l-3.69-9.843zm10.32-6.63c.052.373.08.772.08 1.203 0 1.185-.227 2.52-.912 4.186l-3.665 10.322C25.6 24.076 28 20.312 28 16c0-2.032-.533-3.943-1.47-5.607zM16 0C7.163 0 0 7.163 0 16s7.163 16 16 16 16-7.163 16-16S24.837 0 16 0zm0 30C8.268 30 2 23.732 2 16S8.268 2 16 2s14 6.268 14 14-6.268 14-14 14z"/></symbol></svg>