<svg xmlns="http://www.w3.org/2000/svg"><symbol id="icon-atom" viewBox="0 0 32 32"><path d="M25.998 6.46zm.066 9.54c3.262-3.12 4.846-6.174 3.792-8-.602-1.042-1.98-1.54-3.86-1.54v1.5c1.318 0 2.275.296 2.56.79.227.39.1.992-.044 1.427-.278.835-.884 1.833-1.75 2.888-.527.64-1.134 1.285-1.81 1.926-.93-.802-1.965-1.6-3.087-2.376-.11-1.36-.284-2.654-.514-3.86 1.757-.52 3.35-.794 4.647-.794v-1.5c-1.412 0-3.106.282-4.965.825C19.962 2.9 18.108 0 16 0s-3.962 2.9-5.032 7.284c-1.86-.543-3.553-.825-4.965-.825-1.88 0-3.258.497-3.86 1.54-1.054 1.826.53 4.88 3.792 8-3.262 3.12-4.846 6.174-3.792 8 .602 1.043 1.98 1.54 3.86 1.54 1.412 0 3.106-.282 4.965-.825C12.038 29.1 13.892 32 16 32s3.962-2.9 5.032-7.284c1.86.543 3.553.825 4.965.825 1.88 0 3.258-.497 3.86-1.54 1.054-1.826-.53-4.88-3.792-8zm-2.235 0c-.583.496-1.203.987-1.856 1.468.017-.484.025-.973.025-1.468s-.01-.985-.026-1.468c.653.48 1.273.972 1.855 1.468zm-3.915 6.777c-.72-.256-1.455-.547-2.196-.87.425-.228.852-.464 1.28-.71.428-.25.847-.5 1.258-.757-.09.805-.205 1.586-.344 2.337zm-1.665-2.88c-.743.43-1.496.832-2.25 1.207-.754-.374-1.507-.778-2.25-1.207-.75-.433-1.475-.882-2.172-1.344-.052-.835-.078-1.688-.078-2.553s.027-1.718.078-2.553c.697-.462 1.423-.912 2.172-1.344.743-.43 1.496-.832 2.25-1.207.754.374 1.507.778 2.25 1.207.75.433 1.475.882 2.172 1.344.052.835.078 1.688.078 2.553s-.027 1.718-.078 2.553c-.697.462-1.423.912-2.172 1.344zm-6.51.543c.412.256.83.51 1.26.756.428.247.855.483 1.28.71-.74.323-1.475.615-2.196.87-.138-.75-.254-1.53-.344-2.336zm-1.715-2.972c-.653-.48-1.273-.972-1.855-1.468.582-.496 1.202-.987 1.855-1.468-.017.484-.025.973-.025 1.468s.01.985.025 1.468zm2.06-8.245c.72.256 1.455.547 2.196.87-.425.228-.852.464-1.28.71-.428.25-.847.5-1.258.757.09-.805.205-1.586.344-2.337zM19 10.803c-.427-.246-.855-.482-1.28-.71.74-.322 1.475-.614 2.196-.87.138.75.253 1.532.344 2.337-.41-.256-.83-.51-1.26-.756zm-5.838-5.59c.48-1.278 1.04-2.302 1.625-2.96.304-.344.762-.753 1.213-.753s.91.41 1.213.752c.584.658 1.146 1.682 1.625 2.96.29.777.546 1.625.764 2.53-1.16.405-2.37.902-3.602 1.486-1.232-.585-2.442-1.082-3.602-1.486.218-.905.473-1.754.764-2.53zm-7.923 7.85c-.868-1.053-1.474-2.052-1.752-2.887-.145-.435-.27-1.036-.045-1.427.286-.496 1.243-.79 2.56-.79 1.298 0 2.89.273 4.647.793-.23 1.206-.404 2.5-.514 3.86-1.123.775-2.157 1.574-3.088 2.377-.675-.64-1.282-1.286-1.81-1.926zm.763 10.977c-1.318 0-2.275-.296-2.56-.79-.227-.39-.1-.992.044-1.427.278-.835.884-1.833 1.75-2.888.528-.64 1.134-1.285 1.81-1.926.93.802 1.965 1.6 3.087 2.376.11 1.36.284 2.654.514 3.86-1.756.52-3.35.794-4.646.794zm12.835 2.747c-.48 1.278-1.04 2.302-1.625 2.96-.304.344-.762.753-1.213.753s-.91-.41-1.213-.752c-.584-.658-1.146-1.682-1.625-2.96-.29-.776-.546-1.624-.764-2.53 1.16-.404 2.37-.9 3.602-1.485 1.232.585 2.442 1.082 3.602 1.486-.218.904-.473 1.753-.764 2.53zm9.674-4.964c.145.435.27 1.036.045 1.427-.286.495-1.243.79-2.56.79-1.298 0-2.89-.272-4.647-.793.23-1.206.404-2.5.514-3.86 1.122-.775 2.157-1.574 3.087-2.377.676.64 1.283 1.286 1.81 1.926.867 1.054 1.473 2.053 1.75 2.888z"/></symbol><symbol id="icon-chart" viewBox="0 0 32 32"><path d="M4 28h28v4H0V0h4zm5-2c-1.657 0-3-1.343-3-3s1.343-3 3-3c.088 0 .176.005.262.012l3.225-5.375C12.18 14.167 12 13.604 12 13c0-1.658 1.343-3 3-3s3 1.342 3 3c0 .603-.18 1.166-.487 1.637l3.225 5.375c.086-.007.174-.012.262-.012.067 0 .133.003.198.007l5.324-9.316C26.192 10.21 26 9.628 26 9c0-1.657 1.343-3 3-3s3 1.343 3 3-1.343 3-3 3c-.067 0-.133-.003-.198-.007l-5.324 9.316c.33.48.522 1.063.522 1.69 0 1.657-1.343 3-3 3s-3-1.343-3-3c0-.604.18-1.167.487-1.638l-3.225-5.375c-.086.007-.174.012-.262.012s-.176-.006-.262-.013l-3.225 5.375c.307.47.487 1.033.487 1.637 0 1.656-1.343 3-3 3z"/></symbol><symbol id="icon-code" viewBox="0 0 32 32"><path d="M4 16l8-8H8l-8 8 8 8h4zm20-8h-4l8 8-8 8h4l8-8zm-7-4l-5 24h3l5-24z"/></symbol><symbol id="icon-lab" viewBox="0 0 32 32"><path d="M29.884 25.14L20 8.67V2h1c.55 0 1-.45 1-1s-.45-1-1-1H11c-.55 0-1 .45-1 1s.45 1 1 1h1v6.67L2.116 25.14C-.148 28.913 1.6 32 6 32h20c4.4 0 6.148-3.087 3.884-6.86zM7.532 20L14 9.22V2h4v7.22L24.468 20H7.533z"/></symbol><symbol id="icon-lightbulb" viewBox="0 0 32 32"><path d="M16 0c-5.336 0-9.666 4.27-9.666 9.534 0 2.63 1.568 5.39 3.362 8.373s.376 6.28 6.48 6.192c5.852-.087 4.335-2.768 6.04-5.752s3.45-6.184 3.45-8.815C25.666 4.27 21.336 0 16 0zm-4.058 24.95v2.54c1.247.404 2.618.63 4.058.63s2.81-.225 4.058-.63v-2.345c-.697.642-1.84.82-3.88.853-2.265.037-3.493-.238-4.235-1.046zm.043 4.116c.157.857.83 2.934 4.016 2.934s3.86-2.077 4.017-2.934c-1.802.55-2.624.58-4.016.58s-2.213-.03-4.015-.58z"/></symbol><symbol id="icon-pricetag" viewBox="0 0 32 32"><path d="M28.994 0h-9.018c-1.653 0-3.962.956-5.13 2.125L.875 16.093c-1.168 1.17-1.168 3.082 0 4.25l10.78 10.78c1.168 1.168 3.08 1.168 4.25 0l13.968-13.97c1.17-1.168 2.125-3.477 2.125-5.13V3.005C32 1.352 30.645 0 28.992 0zM25 10c-1.657 0-3-1.343-3-3s1.343-3 3-3 3 1.343 3 3-1.343 3-3 3z"/></symbol><symbol id="icon-reload" viewBox="0 0 32 32"><path d="M27.313 4.687C24.418 1.79 20.418 0 16 0 9.14 0 3.29 4.316 1.016 10.38l3.746 1.406C6.468 7.238 10.856 4 16 4c3.314 0 6.313 1.344 8.485 3.515L20 12h12V0l-4.687 4.687zM16 28c-3.314 0-6.313-1.343-8.485-3.515L12 20H0v12l4.687-4.687C7.582 30.21 11.58 32 16 32c6.86 0 12.71-4.316 14.984-10.38l-3.746-1.406C25.532 24.762 21.144 28 16 28z"/></symbol></svg>