<svg xmlns="http://www.w3.org/2000/svg"><symbol id="icon-car" viewBox="0 0 32 32"><path d="M26.387 10l-2.36-7.08c-.18-.54-.706-.92-1.278-.92H9.25c-.573 0-1.098.38-1.28.92L5.61 10H0v14h4v5c0 .55.45 1 1 1h4c.55 0 1-.45 1-1v-5h12v5c0 .55.45 1 1 1h4c.55 0 1-.45 1-1v-5h4V10h-5.613zM7 20c-1.657 0-3-1.343-3-3s1.343-3 3-3 3 1.343 3 3-1.343 3-3 3zm1.22-10l2-6h11.56l2 6H8.22zM25 20c-1.657 0-3-1.343-3-3s1.343-3 3-3 3 1.343 3 3-1.343 3-3 3z"/></symbol><symbol id="icon-google" viewBox="0 0 32 32"><path d="M24.673 2H16.3c-3.754 0-7.287 2.844-7.287 6.138 0 3.366 2.56 6.083 6.378 6.083.267 0 .525-.004.777-.023-.248.475-.425 1.01-.425 1.564 0 .937.503 1.695 1.14 2.314-.48 0-.945.014-1.452.014-4.65 0-8.228 2.96-8.228 6.032 0 3.024 3.923 4.916 8.573 4.916 5.3 0 8.228-3.008 8.228-6.032 0-2.425-.715-3.877-2.928-5.442-.757-.536-2.204-1.84-2.204-2.604 0-.897.257-1.34 1.608-2.395 1.385-1.082 2.365-2.603 2.365-4.372 0-2.105-.938-4.158-2.7-4.836H22.8L24.672 2zm-2.925 20.483c.066.28.103.57.103.863 0 2.444-1.574 4.353-6.092 4.353-3.214 0-5.535-2.036-5.535-4.48 0-2.394 2.88-4.388 6.093-4.353.75.008 1.45.13 2.083.334 1.744 1.214 2.995 1.9 3.348 3.282zm-5.145-9.115c-2.157-.065-4.207-2.413-4.58-5.246s1.074-5 3.23-4.937c2.158.065 4.208 2.338 4.58 5.17s-1.074 5.078-3.23 5.013z"/></symbol><symbol id="icon-pricetag" viewBox="0 0 32 32"><path d="M28.994 0h-9.018c-1.653 0-3.962.956-5.13 2.125L.875 16.093c-1.168 1.17-1.168 3.082 0 4.25l10.78 10.78c1.168 1.168 3.08 1.168 4.25 0l13.968-13.97c1.17-1.168 2.125-3.477 2.125-5.13V3.005C32 1.352 30.645 0 28.992 0zM25 10c-1.657 0-3-1.343-3-3s1.343-3 3-3 3 1.343 3 3-1.343 3-3 3z"/></symbol></svg>