<svg xmlns="http://www.w3.org/2000/svg" width="40" height="32" viewBox="0 0 40 32"><path d="M15.392 22.017l4.59 4.59-3.646 4.682c-.668.873-1.85.95-2.63.174l-3.17-3.172c-.78-.778-.7-1.96.174-2.63l4.682-3.645zM39.797 8.203L35 13l-6-6 4.797-4.797C33.22 2.07 32.617 2 32 2c-4.418 0-8 3.582-8 8 0 1.594.466 3.078 1.27 4.325l-4.467 3.478L14 11l9-9H13L8.56 6.44 8.123 6h-2.12v2.12l.438.44L0 15l5 5 6-6 18 18 3-3-7.802-7.804 3.478-4.466C28.923 17.533 30.408 18 32 18c4.42 0 8-3.583 8-8 0-.62-.07-1.22-.202-1.798z"/></svg>