<svg xmlns="http://www.w3.org/2000/svg" width="100" height="100" viewBox="5.0 -10.0 100.0 135.0"><path d="M91.347 18.09h-37.69v-5.908c0-2.018-1.643-3.653-3.652-3.653-2.018 0-3.653 1.634-3.653 3.652v5.91h-37.7C6.645 18.09 5 19.725 5 21.743c0 2.018 1.644 3.653 3.653 3.653h4.557v43.836c0 2.018 1.635 3.653 3.653 3.653H39.53L22.078 84.794c-1.662 1.142-2.09 3.416-.96 5.078.713 1.04 1.855 1.598 3.024 1.598.712 0 1.425-.21 2.055-.64l20.155-13.76v10.748c0 2.018 1.635 3.653 3.653 3.653 2.01 0 3.653-1.634 3.653-3.652v-10.76l20.164 13.773c.63.43 1.352.64 2.055.64 1.17 0 2.32-.557 3.023-1.598 1.142-1.662.712-3.936-.96-5.078L60.49 72.886h22.647c2.018 0 3.653-1.635 3.653-3.653V25.397h4.557c2.018 0 3.653-1.635 3.653-3.653s-1.635-3.653-3.653-3.653zM79.484 65.58H20.516V25.397h58.968V65.58z"/></svg>