<svg xmlns="http://www.w3.org/2000/svg" width="86.9" height="100" viewBox="-1.163 -16.654 86.9 135.0" enable-background="new -5.508 -6.654 86.9 100"><path d="M34.054 77.245l-16.37 6.277-1.636-2.867 18.006-11.05V63.33H-.596c-2.728 0-4.912-2.182-4.912-4.91 0-2.592 1.91-4.64 4.5-4.91V8.353c-2.59-.135-4.5-2.32-4.5-4.775 0-2.728 2.184-4.912 4.912-4.912H35.01l2.046-5.32h1.23l2.04 5.32h36.155c2.73 0 4.912 2.184 4.912 4.912 0 2.73-2.184 4.912-4.91 4.912v45.02c2.727 0 4.91 2.182 4.91 4.91s-2.184 4.91-4.91 4.91H40.737v6.275l18.144 11.05-1.636 2.867-16.508-6.277v12.55c0 1.91-1.498 3.55-3.408 3.55-2.047 0-3.276-1.64-3.276-3.55v-12.55zM70.204 8.9H5.27v44.2h64.933V8.9z"/><text x="-5.508" y="110.846" font-size="5" font-weight="bold" font-family="Helvetica Neue, Helvetica, Arial-Unicode, Arial, Sans-serif">Created by John Caserta</text><text x="-5.508" y="115.846" font-size="5" font-weight="bold" font-family="Helvetica Neue, Helvetica, Arial-Unicode, Arial, Sans-serif">from the Noun Project</text></svg>