<svg xmlns="http://www.w3.org/2000/svg" viewBox="5.0 -10.0 100.0 135.0" height="100" width="100"><path d="M90.7 70.4h-3V11.2h3c.8 0 1.4-.6 1.4-1.4 0-.8-.7-1.4-1.4-1.4H51.4v-2c0-.8-.6-1.4-1.4-1.4-.8 0-1.4.6-1.4 1.4v1.8H9.3c-.8 0-1.4.6-1.4 1.4 0 .8.6 1.4 1.4 1.4h3v59.2h-3c-.8 0-1.4.6-1.4 1.4 0 .8.6 1.4 1.4 1.4h28.9L18.9 92.5c-.6.6-.6 1.5 0 2 .3.3.7.4 1 .4.4 0 .7-.1 1-.4l21.3-21.3h6.3v16.2c0 .8.6 1.4 1.4 1.4.8 0 1.4-.6 1.4-1.4V73.3h6.3l21.3 21.3c.3.3.7.4 1 .4.4 0 .7-.1 1-.4.6-.6.6-1.5 0-2l-19-19.3h28.9c.8 0 1.4-.6 1.4-1.4 0-.9-.7-1.5-1.5-1.5zm-5.8 0H15.1V11.2h69.8v59.2z"/><text y="117.5" font-size="5" font-weight="bold" font-family="Helvetica Neue, Helvetica, Arial-Unicode, Arial, Sans-serif">Created by Garrett Knoll</text><text y="122.5" font-size="5" font-weight="bold" font-family="Helvetica Neue, Helvetica, Arial-Unicode, Arial, Sans-serif">from the Noun Project</text></svg>