<svg xmlns="http://www.w3.org/2000/svg"><symbol id="icon-camera" viewBox="0 0 32 32"><path d="M9.5 19c0 3.59 2.91 6.5 6.5 6.5s6.5-2.91 6.5-6.5-2.91-6.5-6.5-6.5-6.5 2.91-6.5 6.5zM30 8h-7c-.5-2-1-4-3-4h-8c-2 0-2.5 2-3 4H2c-1.1 0-2 .9-2 2v18c0 1.1.9 2 2 2h28c1.1 0 2-.9 2-2V10c0-1.1-.9-2-2-2zM16 27.875c-4.902 0-8.875-3.973-8.875-8.875s3.973-8.875 8.875-8.875 8.875 3.973 8.875 8.875-3.973 8.875-8.875 8.875zM30 14h-4v-2h4v2z"/></symbol><symbol id="icon-kraken" viewBox="0 0 100 100"><path d="M84.26 44.556c-.16.218-.098.39-.024.59.057.158.116.32.04.488-.1.212-.34.146-.513.097-.15-.04-.32-.088-.434-.025-.076.043-.134.136-.173.28-.107.388.064.563.217.717.1.102.224.228.154.39-.063.147-.227.16-.386.17-.148.013-.316.026-.4.13-.07.09-.088.245-.054.463.048.322.273.39.612.456.22.043.467.092.51.327.02.097-.013.16-.043.197-.084.104-.237.106-.414.108-.173.003-.37.006-.462.103-.047.05-.07.13-.066.242.007.24.055.398.143.474.1.085.253.065.402.048.156-.02.374-.047.437.152.037.116-.006.254-.055.413-.06.194-.127.413-.034.553.074.112.255.18.53.208.04-.01.078-.018.118-.018.092 0 .222.03.325.18.097.137.246.186.405.238.168.056.358.118.433.31.073.19.157.216.236.216.068 0 .15-.023.23-.045.085-.024.173-.05.26-.05.152 0 .24.082.285.15.04.062.075.07.106.07.06 0 .142-.035.222-.07.102-.045.208-.092.32-.092.167 0 .294.104.377.307.03-.022.07-.06.103-.084.117-.1.25-.214.404-.214.048 0 .095.012.137.033.145.077.285-.064.432-.205.154-.147.31-.285.487-.243.178-.063 1.07-1.475.973-2.53-.094-1.01-.902-1.747-1.287-1.747-.075 0-.095.032-.103.046-.143.24-.024.444.196.783.282.434.67 1.027.118 1.925-.09.144-.58.86-1.56.86h-.055c-.706-.02-1.786-.875-2.118-1.948-.184-.59-.274-1.733 1.166-2.78.368-.268.878-.408 1.476-.408 1.274 0 2.635.62 3.465 1.582.73.846 1.028 1.902.857 3.06-.364 2.478-3.23 5.233-9.796 6.952.168.104.24.31.298.487.09.275.158.444.383.483.022-.03.01-.217 0-.34-.02-.283-.04-.603.146-.77.1-.09.236-.12.41-.09.745.132.753.645.758.983.004.25.02.33.104.354.168.048.235-.037.364-.34.078-.183.158-.372.336-.43.105-.033.226-.01.355.07.6.37.53.95.49 1.295-.008.07-.02.158-.016.207.03-.012.077-.04.11-.06.208-.12.558-.323 1.01.083.252.225.134.576.048.833-.027.082-.067.202-.068.256.043-.015.12-.063.172-.098.18-.115.426-.273.687-.18.085.032.164.087.236.17.528-.27-.123-.77.32-1.09.335-.24.94 1.043 1.843.237.755-.673-.146-1.115.597-1.687.313-.24.81.547 1.542-.097.807-.708-.782-1.18-.184-1.868.28-.32 1.043.53 1.73-.21.68-.734-.48-.99-.12-1.665.192-.355 1.19.073 1.427-.713.317-1.05-1.23-.86-1.052-1.598.088-.37 1.444.224 1.646-.6.196-.8-1.05-.727-1.107-1.422-.027-.332 1.002.018 1.05-.718.04-.634-.906-.46-1.034-.892-.105-.35.294-.863.17-1.16-.412-.99-.687-.285-.92-.562-.116-.137.277-.903-.196-1.197-.598-.37-.726.454-1.052.307-.29-.132.235-.95-.535-1.426-.29-.18-.925.405-1.256.37-.295-.03.08-.92-.55-1.013-.87-.128-.893.73-1.126.665-.188-.053.35-.686-.592-.794-.906-.104-1.066.777-1.406.83-.353.057-.354-.873-1.13-.77-.55.07-.47 1.4-1.176 1.076-.11-.05-.242-.11-.365-.26-.137.04-.31.17-.544.486zM87.96 60.406c-.14-.05-.31.058-.458.153-.154.098-.3.19-.44.117-.212-.11-.128-.36-.054-.582.087-.26.14-.45.025-.555-.31-.276-.51-.162-.702-.05-.122.072-.262.153-.397.062-.133-.09-.112-.264-.09-.466.04-.338.09-.76-.366-1.04-.06-.04-.11-.055-.14-.045-.06.02-.123.166-.173.283-.104.243-.26.608-.68.488-.284-.082-.288-.37-.292-.6-.005-.342-.01-.637-.54-.73-.09-.016-.153-.007-.19.024-.09.082-.072.356-.058.556.017.244.03.454-.09.563-.04.035-.107.074-.216.055-.397-.068-.504-.396-.59-.66-.092-.288-.14-.385-.327-.372-.18.014-.237.16-.322.42-.078.236-.175.53-.48.622-.282.083-.485-.134-.664-.326-.223-.24-.348-.343-.527-.257-.225.107-.238.292-.24.583-.004.238-.008.508-.223.696-.065.057-.13.06-.173.053-.118-.018-.187-.13-.265-.262-.07-.117-.16-.264-.264-.287-.053-.01-.12.01-.196.06-.39.263-.333.575-.278.878.038.213.082.455-.122.588-.206.134-.363-.062-.468-.19-.096-.118-.195-.24-.327-.25-.117-.005-.277.08-.46.26-.085.08-.045.22.03.438.08.23.18.52-.028.738-.19.2-.4.1-.554.024-.22-.105-.394-.19-.68.285-.13.213-.037.382.124.64.107.17.218.347.218.552 0 .27-.23.37-.434.458-.21.092-.424.184-.52.444l-.035.134c-.166.628-.26 1.216.438 1.5l.198.08-.162.142c-.207.178-.298.43-.25.69.05.26.23.483.465.567l.114.04-.033.12c-.04.144 0 .332.103.466.063.085.18.188.362.188.056 0 .114-.01.175-.028l.11-.035.05.107c.167.375.3.45.458.45.092 0 .207-.026.364-.082l.13-.046.04.132c.056.18.266.218.433.218.246 0 .56-.09.76-.217l.068-.044.068.04c.088.05.187.074.293.074.373 0 .825-.33.903-.823l.02-.117.117.007c.11 0 .29-.166.457-.637.247-.7.255-1.44.153-1.522-.08.003-.267.284-.403.49-.324.485-.77 1.152-1.458 1.152-.464 0-.95-.3-1.488-.91l-.02-.025-.01-.03c-.323-1.225.254-2.447.903-3.187.074-.09.147-.182.22-.274.76-.954 1.543-1.94 3.297-2.032.63-.035 1.33.256 1.854.77.406.4.64.875.633 1.272l.003.01v.005c.018 3.907-2.148 7.888-5.406 9.984.71.428 3.127 1.725 4.12 2.177.393-.225.734-.73.46-1.805-.094-.37.89.078 1.512-.53.45-.44-.622-.914-.238-1.66.174-.34.883.515 1.485-.238.45-.562-.71-.873-.297-1.604.164-.293 1.02.237 1.426-.416.48-.775-.946-.98-.772-1.3.437-.806 1.01-.064 1.366-.897.273-.64-1.06-.505-.934-.864s.994-.224 1.112-.563c.31-.888-.678-.545-.625-1.167.03-.348.602-.243.684-.675.122-.634-.995-.334-.83-1.05.12-.527.483-.29.54-1.03-.092-.208-.193-.336-.298-.374zM98.53 73.014c-.358-.768-4.636 6.84-15.74 1.734.068-.003.154-.013.245-.034-1.238-.592-3.742-1.945-4.1-2.195-3.377-2.017-7.465-3.083-11.82-3.083-2.822 0-5.655.45-8.193 1.305l-.062.02h-.003c-.758.223-2.236.592-3.67.95-1.52.38-2.957.738-3.492.91v-.002c-1.163.463-2.242.757-3.38 1.063-.692.188-1.405.38-2.188.623 2.73.667 4.706 1.61 5.758 2.786.51-.12 1.292-.456 1.437-1.392.887.647 1.62.303 2.55-.6.215.14.734-.04 1.024.325.19.238.3.782.818.862 1.275.198 1.226-.76 1.723-.712.45.04.214 1.57.713 1.782 1.96.83 2.07-1.02 2.673-.724.786.388-.354 1.313 1.426 1.733.97.23.89-1.367 1.663-1.13.662.204-.73 1.785 1.07 1.783.94-.002 1.243-1.043 1.722-1.07.476-.027-.05 1.07 1.366 1.07.99-.002.976-1.17 1.428-1.19.438-.02-.055 1.19 1.188 1.19 1.166-.002.88-1.418 1.307-1.427.447-.01.203 1.21 1.07 1.01 1.012-.234.98-1.434 1.307-1.426.434.01.49.98 1.366.713 1.216-.372.356-1.258.943-1.582.76.894 1.414.687 1.945.1-.965-.65-2.97-1.645-4.13-2.22-.532-.265-.79-.392-.873-.444l-.147.156c-.388.413-2.688.75-5.127.75-1.874 0-5.263-.2-6.907-1.54l-.395-.32.5.09c.93.17 1.142-.016 1.725-.53l.116-.104.08.043c.177.093.413.143.684.143.518 0 1.065-.19 1.274-.44l.09-.107.1.096c.588.55 1.176.607 1.746.16l.12-.094.074.132c.153.266.39.412.666.412.29 0 .592-.157.826-.432l.155-.183.07.23c.118.387.477.445.68.445.214 0 .45-.064.67-.18l.115-.062.062.116c.26.49.72.57 1.326.273l.126-.064.053.132c.266.665.528.73 1.095.812l.22.032.14-.194c.05.035.422.22.853.435 1.188.588 3.24 1.607 4.217 2.277 11.32 5.15 18.1-2.36 17.702-3.216zM79.607 63.495c.104 0 .22-.016.33-.03.532-.08.67-.5.79-.87.083-.254.16-.493.384-.522.286-.035.35.24.398.453.094.398.197.646.735.57.757-.104.82-.63.873-1.052.032-.263.063-.51.29-.555l.122-.024.03.12c.187.75.507.75.612.75.078 0 .152-.017.213-.03-.03-.306-.233-.673-.55-.985-.474-.464-1.09-.722-1.657-.696-1.635.086-2.382 1.025-3.104 1.935-.06.072-.117.145-.176.22.227.657.466.715.71.715zM48.288 77.417c-.25.104-.67.172-1.024.022-.174-.073-.312-.19-.404-.344-.482.194-1.104.212-1.563-.256-.49.28-.934.277-1.385-.008-.37.252-.802.357-1.202.29-.33-.056-.614-.222-.828-.482-.233.18-.537.27-.87.258-.383-.015-.75-.165-1.005-.407-.262.175-.63.26-.992.225-.25-.024-.458-.102-.6-.22-.446.33-1.284.472-1.856.02-.293.324-.823.442-1.26.442h-.017c-.288-.002-.622-.058-.855-.195-.09.35-.408.628-.66.796.043.354.367.73 1.014.632-.12.712.712 1.84 1.722 1.603.297.595 1.9.892 2.555.298.77.595 1.96.595 3.088-.475 1.01.714 2.258.476 2.463-.557.983.26 2.186.206 3.015-.334.733-.003 1.558-.078 1.97-.394-.477-.496-1.16-.976-1.307-.913zM45.396 74.542l-.038.012-.04-.01c-.77-.215-1.49-.408-2.213-.56-.95-.142-1.96-.257-3.028-.346-.21-.002-.423-.003-.645.005l-.126.004-.006-.07c-1.927-.134-4.028-.187-6.278-.152-4.38.466-8.092 1.725-10.553 2.56-1.402.477-2.415.82-2.966.82-.122 0-.22-.017-.303-.05-.088-.037-.145-.114-.153-.21-.097-1.162 9.274-9.046 16.517-13.538l.394-.245-.207.415c-1.452 2.906-2.612 8.225-2.54 9.98 2.172-.025 4.207.028 6.082.16-.066-2.667 2.054-6.22 3.558-7.83.504-.538 1.25-1.186 1.736-1.07.292.068.652.245 1.07.523.08.053.104.12.112.166.025.152-.093.307-.243.502-.358.467-.597.86-.145 1.327.32.332.65.493 1.008.493.25 0 .48-.074.682-.14.323-.106.592-.153.76.016.18.18.09.413.006.64-.13.344-.276.734.18 1.23.122.13.29.195.512.195.27 0 .57-.096.814-.17.35-.11.574-.155.676-.02.093.125.03.294-.058.526-.154.41-.387 1.03.137 1.626.127.145.394.225.752.225.388 0 .788-.094.967-.183l.273-.134-.09.29c-.06.194-.03.427-.01.612.006.043.01.076.013.112.69-.193 1.877-.49 3.12-.8 1.313-.33 2.665-.666 3.46-.89-1.856-1.414-5.556-6.08-4.732-7.743.285-.573 1.587-.854 3.98-.858.466 0 .572.188.662.434.075.204.145.396.712.48.418.064.61-.126.83-.353.19-.196.405-.418.784-.418.11 0 .228.02.355.058.598.175.618.53.634.815.018.308.03.55.697.705.065.015.126.022.18.022.272 0 .39-.174.56-.455.166-.276.354-.59.793-.59.08 0 .17.013.26.035.627.15.624.568.62.874-.002.342-.004.59.68.657.464.047.597-.202.757-.526.167-.335.375-.753 1.05-.753h.05c.687.02.71.5.726.85.017.363.027.603.514.603.737 0 .84-.342.95-.705.087-.29.186-.62.64-.642.644-.036.77.387.867.722.105.35.187.625.726.625.616 0 .764-.337.92-.692.124-.286.266-.61.676-.648.39-.034.55.33.685.652.12.277.207.46.345.46.088 0 .254-.067.547-.366.103-.457.442-.607.693-.716.2-.087.275-.13.275-.218 0-.13-.086-.267-.178-.413-.153-.246-.346-.553-.127-.916.38-.626.712-.534 1.02-.385.164.077.2.082.25.03.09-.097.05-.243-.03-.473-.078-.228-.177-.51.034-.714.24-.235.458-.342.658-.332.247.017.402.208.516.35.043.05.105.125.132.135.042-.035.03-.13-.004-.322-.057-.313-.142-.785.39-1.142.14-.093.275-.126.4-.098.215.048.34.256.433.407.022.035.05.08.073.113.096-.112.1-.278.1-.47.004-.208.007-.456.166-.645-1.66.32-3.504.582-5.553.77v.006l-.09.002c-.655.06-1.332.11-2.03.155l-.914.06.86-.314c.333-.12 1.584-.153 1.97-.16.064-.22.24-.71.513-.843.215-.104.382-.15.524-.15.227 0 .354.12.476.237.17.162.367.35.946.324.314-.014.522-.08.634-.206.147-.164.128-.443.108-.74-.03-.44-.066-.986.494-1.284.107-.058.206-.086.3-.086.315 0 .46.297.602.584.17.347.303.573.576.573.09 0 .195-.024.313-.074.444-.188.382-.515.244-1.032-.117-.438-.25-.935.238-1.222.122-.072.23-.107.334-.107.318 0 .45.32.564.604.13.32.23.527.437.527.166 0 .398-.12.69-.36.574-.47.374-.783.16-1.115-.146-.232-.33-.52-.062-.79.18-.18.334-.265.484-.265.2 0 .325.146.437.275.108.126.182.202.276.202.08 0 .224-.054.467-.31.47-.49.182-.877-.05-1.187-.13-.172-.25-.334-.144-.48 0-.003.103-.137.25-.262-.187-.057-.323-.14-.404-.26-.163-.244-.072-.54 0-.777.028-.086.07-.218.057-.256-.01.01-.098.02-.157.028-.177.022-.42.052-.605-.107-.148-.127-.225-.346-.234-.666-.005-.184.042-.33.14-.432.17-.176.436-.18.648-.183.062 0 .147-.002.195-.012-.038-.05-.168-.076-.294-.1-.296-.06-.742-.146-.822-.676-.044-.298-.01-.515.11-.664.154-.194.402-.214.584-.228.047-.005.115-.01.152-.02-.02-.026-.057-.064-.087-.096-.162-.164-.433-.44-.284-.973.06-.216.156-.36.296-.438.208-.12.443-.054.633 0 .072.02.18.05.212.04.02-.06-.007-.146-.057-.282-.077-.214-.185-.505.062-.836.235-.32.438-.486.618-.56-.04-.088-.077-.188-.11-.313-.066-.263-.752.023-1.04-.14-.308-.174.126-.705-.496-1.2-.246-.197-.83.437-1.058.187-.425-.466.367-.773-.19-1.317-.578-.565-1.145.43-1.377.317-.277-.136-.025-.92-.286-1.09-.677-.437-.55.672-1.612.42-.265-.062.084-1.058-.468-1.19-.744-.183-.644.668-1.327.605-.62-.058-.276-.934-1.012-.963-.982-.04-.21.99-.93 1.01-.343.008-.53-.818-1.142-.657-.63.165-.114.724-.58 1.07-.354.266-.968-.34-1.247-.06-.606.614-.112.757-.237 1.19-.127.433-.602.107-.757.84-.17.81.645.388.696.975.03.376-.95.314-.647 1.032.207.485.637.014.942.42.162.216-.435.666-.09.97.325.29.694-.158.98.04.25.174.136.688.713.772.355.052.302-.18.653-.238.122-.02.248.38.652.327.31-.04.194-.234.36-.267 2.182-.42 2.002-2.903 1.515-2.922-.52-.018-.705 2.206-2.46 1.735-1.842-.495-1.426-3.992 1.335-3.73 2.062.198 6.275 2.885 5.805 6.982-.523 4.573-9.3 9.188-22.69 5.544.317-.372.88-.667 1.6-.91.32-.11.278.742 1.188.648.77-.08.81-.84 1.022-1.192.22-.36.59-.284.85-.148.358.188-.217 1.257 1.083.914 1.122-.297.928-.83 1.093-1.24.33-.817.803-.603 1.214-.176.184.19.085.973.976.628 1.362-.528.507-2.196.688-2.232.35-.07.59 1.392 1.627.985.437-.17.38-.738.737-.886.696-.29.693-1.146.854-1.607.163-.47.34-.79.067-1.186-2.553-3.728-3.274-4.332-4.516-4.387-7.417-.33-9.358-4.35-7.87-7.07 2.258-4.128 5.162-.326 5.427-.613.278-.3-1.71-3.43-5.136-2.188-.268.097-.25.41-.396.708-.113.227-.833-.098-.943.154-.085.194 0 .605-.075.818-.078.218-.676.034-.667.278.013.353.153.77.095 1.022-.05.22-.8.32-.815.55-.04.552.487.686.455.91-.036.252-.73.414-.753.67-.024.25.613.71.602.96-.014.298-.348.51-.343.805.003.275.492.558.513.825.018.23-.41.408-.304.605.476.888.915.657 1.003.985.082.302-.14.504.304.93.524.5.825-.04 1.062.227.278.315.053.945.416 1.137.525.28.73-.454 1.06-.38.297.067.067.953.628 1.093.675.167.83-.476 1.212-.434.35.04.29.938.87 1.237.53.27.736-.695.986-.606.623.222.222.934.854.966.543.03.742-.77 1.027-.752.243.015 1.364.556.603 1.15-3.39 2.662-14.22 2.936-13.953.68.128-1.086 1.674-1.756 1.63-3.987-.02-.96-1.718-2.2-1.718-2.2 5.788-11.06 2.33-13.597 3.75-16.052.594-.04.9-.52.886-1.064.54.193.89.018.94-.495.52.25.913.294 1.268-.146.302.352.65.44.983.11.282.372.5.416.822.168.466.38.642.467.88.206.374.305.637.436.995.215.386.31.648.353.915.122 1.2.088 2.313-.178 3.178-1.39.37-.52-1.214.4-3.053.34-2.164-.066-6.806-3.705-9.86.19-2.797 3.57.453 3.32-5.79 13.115 0 0-11.57-27.77-25.613-16.892-9.457 7.327-5.115 25.64 9.668 26.572C24.89 55.128 4.93 50.682 5.19 44.837c.118-2.662 2.368-2.948 4.173-2.18 2.482 1.06 3.595 3.87 4.268 3.663.64-.196-.816-4.086-3.746-5.88-.396-.244-.79-.31-1.053-.464-.812-.48-.872-.018-1.643-.352-.5-.203-.872.395-1.407.276-.545-.12-.88.512-1.824.744-.398.098-.24.866-.778 1.013-.807.22-.716 1.17-.958 1.43-.17.183-.57.363-.675 1.096-.107.74.697.83.592 1.172-.18.58-.734-.154-.68 1.266.042 1.105.87.51.926 1.033.035.328-1 .522-.46 1.593.385.762.995.07 1.247.44.187.274-.872.677-.198 1.657.592.86 1.3-.09 1.57.28.25.338-1.023 1.06-.072 1.943 1.045.97 1.76-.39 2.256-.12.666.364-.78.94.847 1.938.917.563 1.544-1.03 1.884-.805.33.217-.156 1.16.776 1.72.953.574 1.135-.917 1.603-.643.564.332-.328 1.15.83 1.826 1.155.675 1.096-.888 1.727-.59.644.305.042 1.017 1.896 1.443.478.11.803-1.442 1.256-1.315.627.177-.13 1.39 1.85 1.932.663.18.796-.988 1.457-.936.52.04.62.76 1.89.567 1.15-.175.562-.975 1.38-1.143.415-.084.704.83 1.815.404.883-.337.52-.965 1.276-1.282.563-.237.87.604 1.648.225.88-.43.542-1.706 1.163-1.693.235.005.526.333.723.356.704.084.985-.393 1.25-.703.632-.743 3.57-.41 3.57-.41-2.226 1.768-10.474 8.266-16.53 14.703-.558.593-1.945.41-1.903 1.96.017.597-1.557.273-1.52 1.148.05 1.136-.717.696-1.037 1.444-.154.358.07.787-.117 1.105-.28.48-1.05.798-1.214 1.273-.323.933.26.896.146 1.386-.165.706-.945.9-.75 2.124.036.22.49.224.57.43.162.417-.436.687.345 1.372.344.302.784-.115 1.082.23.843.985 2.105.187 2.613.478.826.472 2.105.19 2.673-.772.603.513 2.14.81 2.792-.773.772.3 2.02 0 2.436-.95.712.297 1.972.06 2.495-1.01.89.297 1.9.297 2.316-.83.95.296 1.694.26 2.228-.458.354.206.894.268 1.303.216.254-.148.745-.507.684-.914l-.097-.654.34.566c.098.163.452.28.86.282.53.002.974-.17 1.142-.44l.087-.142.117.118c.493.493 1.348.32 1.697-.01l.104-.1.09.112c.09.114.283.196.516.22.337.032.69-.062.895-.238l.1-.085.086.1c.204.236.55.392.902.404.313.01.595-.088.787-.28l.113-.112.09.132c.18.27.436.438.74.488.358.06.75-.048 1.08-.295l.075-.058.078.055c.42.295.8.295 1.266-.004l.098-.06.074.087c.403.48 1.01.43 1.44.22l.127-.062.053.13c.06.148.17.257.322.32.264.11.604.067.823-.022.354-.148 1.177.52 1.657 1.043.715.297 1.193 1.26.383 1.813-1.208.822-3.4-.57-3.14-.013.94 2.01 6.697 1.556 4.47-2.87.007 0 .017-.003.025-.004-1.097-1.146-3.132-2.055-5.923-2.69-.084.032-.17.058-.26.09zm.17-26.084c1.18-.026 2.032 1.507 1.84 2.39-.17.775-.96 1.323-1.84 1.332-.777.008-1.407-.678-1.535-1.37-.27-1.468.73-2.333 1.537-2.352zM80.906 58.146c.168.182.278.29.397.253.162-.05.224-.203.305-.453.04-.118.084-.25.155-.36-.385.095-.778.186-1.187.27.13.075.237.19.33.29zM45.918 50.822c.262-.22-.613-1.27-1.05-1.182-.39.077.787 1.4 1.05 1.182z"/><path stroke="#fff" stroke-width="0" stroke-linecap="round" stroke-linejoin="round" d="M33.362 77.484"/><path d="M75.755 73.52l-.14.194-.22-.032c-.565-.082-.828-.146-1.094-.812l-.053-.132-.126.063c-.604.298-1.064.217-1.325-.272l-.062-.116-.115.063c-.22.114-.456.18-.67.18-.203 0-.562-.06-.68-.447l-.068-.23-.155.184c-.234.274-.535.432-.826.432-.277 0-.514-.146-.667-.412l-.075-.132-.12.094c-.57.447-1.157.39-1.744-.16l-.102-.096-.09.106c-.208.252-.756.44-1.273.44-.272 0-.508-.05-.685-.143l-.08-.042-.116.103c-.584.517-.796.7-1.725.532l-.5-.09.395.32c1.645 1.34 5.033 1.54 6.907 1.54 2.44 0 4.74-.337 5.127-.75l.147-.156c.085.053.342.18.873.443 1.162.575 3.166 1.57 4.13 2.22.18.12.325.23.42.32l.183-.187c-.094-.09-.232-.197-.4-.312-.976-.67-3.03-1.688-4.216-2.276-.432-.214-.805-.4-.855-.434z"/></symbol><symbol id="icon-link" viewBox="0 0 32 32"><path d="M29.794 2.333l-.126-.126c-2.942-2.942-7.756-2.942-10.698 0l-6.816 6.817c-2.942 2.942-2.942 7.756 0 10.697l.126.127c.245.245.505.466.773.67l2.495-2.494c-.29-.172-.566-.377-.816-.627l-.126-.126c-1.597-1.597-1.597-4.196 0-5.793l6.816-6.816c1.597-1.596 4.196-1.596 5.793 0l.126.127c1.598 1.597 1.598 4.197 0 5.793l-3.083 3.084c.535 1.322.79 2.73.767 4.137l4.77-4.768c2.94-2.942 2.94-7.756 0-10.697zm-10.074 9.82c-.245-.244-.505-.465-.773-.67l-2.495 2.496c.29.17.566.376.816.626l.126.126c1.597 1.597 1.597 4.196 0 5.793l-6.817 6.817c-1.597 1.597-4.196 1.597-5.793 0l-.126-.126c-1.597-1.598-1.597-4.196 0-5.793l3.084-3.084c-.535-1.323-.79-2.732-.767-4.138l-4.77 4.77c-2.94 2.94-2.94 7.755 0 10.697l.127.125c2.942 2.942 7.756 2.942 10.698 0l6.816-6.816c2.942-2.943 2.942-7.757 0-10.7l-.126-.125z"/></symbol><symbol id="icon-map" viewBox="0 0 32 32"><path d="M0 6l10-4v24L0 30zm22 0v24l-10-3.333v-24zm10-4v24l-8 3.2v-24z"/></symbol><symbol id="icon-paw" viewBox="0 0 32 32"><path d="M16.698 17.25c-3.916 0-7.667 1.752-10.087 8.804s2.92 6.49 6.29 5.033c3.264-1.41 4.506-1.626 8.436.242 3.7 1.758 6.862-.078 5.543-3.93s-5.765-10.15-10.182-10.15zM9.29 1.362c-2.233.534-3.413 3.567-2.636 6.776s3.216 5.378 5.45 4.844l.03-.008c2.233-.534 3.413-3.567 2.636-6.776-.334-1.38-.977-2.57-1.778-3.433-1.06-1.142-2.4-1.715-3.67-1.41-.01 0-.022.004-.032.007zm12.933-.112c-2.247-.47-4.61 1.77-5.28 5.003-.384 1.858-.125 3.64.59 4.91.53.938 1.312 1.595 2.267 1.795l.024.005c2.247.47 4.61-1.77 5.28-5.003s-.61-6.235-2.857-6.705l-.024-.005zM.643 17.93c1.234 2.854 3.836 4.477 5.81 3.624 1.13-.488 1.81-1.68 1.954-3.147.107-1.096-.085-2.345-.613-3.566l-.002-.004c-1.234-2.855-3.836-4.478-5.81-3.625S-.595 15.07.64 17.926v.005zm24.905 3.12c1.124.492 2.454.18 3.62-.71.878-.67 1.662-1.665 2.196-2.89 1.242-2.85.653-5.863-1.317-6.727l-.026-.01c-1.97-.866-4.573.745-5.815 3.597s-.653 5.864 1.317 6.728l.026.01z"/></symbol><symbol id="icon-petfinder" viewBox="0 0 32 32"><path d="M8.914 30.426c-.396-.79-.72-1.452-.72-1.47s.675.07 1.5.193 1.517.208 1.538.187-.39-3.49-.916-7.708l-.954-7.67-2.74-10.102-.984.98c-.68.68-1 .94-1.037.844-.028-.076-.304-.925-.614-1.888-.466-1.447-.536-1.75-.407-1.75.085 0 3.26-.28 7.058-.623C16.745.87 17.8.8 19.794.797h2.253L25.5 2.068l3.097 3.98.335 4.894-1.033 1.854c-.57 1.02-1.063 1.886-1.1 1.926s-.97.508-2.074 1.04l-2.008.966-2.253-.157c-1.24-.087-3-.268-3.91-.404s-1.686-.22-1.72-.187c-.052.052 3.007 11.54 3.102 11.65.018.022.724-.29 1.57-.694s1.57-.735 1.612-.735c.098 0 .776 2.426.698 2.502-.032.03-1.362.172-2.955.314l-2.896.258-3.124 1.292c-1.718.71-3.143 1.292-3.167 1.292s-.368-.647-.764-1.437zM19.7 14.59l1.486-.496.582-.632c1.29-1.4 1.273-1.376 1.582-2.37.162-.52.396-1.594.518-2.385l.223-1.438-.527-1.008c-.474-.904-.637-1.112-1.596-2.036L20.9 3.196 17.457 1.92l-1.755.422c-1.547.372-1.755.445-1.758.614-.003.21.882 11.78.903 11.81.03.045 2.36.296 2.837.307.4.01.884-.106 2.013-.482z"/></symbol><symbol id="icon-rocket" viewBox="0 0 32 32"><path d="M22 2L12 12H6l-6 8s6.357-1.77 10.065-.94L0 32l13.184-10.255C15.024 25.953 12 32 12 32l8-6v-6l10-10 2-10-10 2z"/></symbol><symbol id="icon-wordpress" viewBox="0 0 32 32"><path d="M4 16c0 4.626 2.76 8.624 6.763 10.518L5.04 11.244C4.372 12.697 4 14.306 4 16zm20.1-.59c0-1.445-.532-2.445-.988-3.223-.608-.963-1.18-1.778-1.18-2.74 0-1.075.837-2.075 2.016-2.075.053 0 .104.006.155.01-2.135-1.906-4.98-3.07-8.103-3.07-4.192 0-7.88 2.095-10.026 5.268.282.01.547.014.772.014 1.255 0 3.198-.15 3.198-.15.647-.036.723.89.077.964 0 0-.65.074-1.372.11l4.37 12.66 2.626-7.67-1.87-4.99c-.645-.036-1.258-.11-1.258-.11-.647-.037-.57-1 .076-.963 0 0 1.98.15 3.16.15 1.255 0 3.198-.15 3.198-.15.647-.037.723.89.076.963 0 0-.65.074-1.373.11l4.337 12.564 1.197-3.895c.518-1.617.913-2.778.913-3.778zm-7.89 1.612l-3.6 10.19c1.075.307 2.212.475 3.39.475 1.397 0 2.738-.235 3.985-.663-.032-.05-.062-.103-.086-.16l-3.69-9.843zm10.32-6.63c.052.373.08.772.08 1.203 0 1.185-.227 2.52-.912 4.186l-3.665 10.322C25.6 24.076 28 20.312 28 16c0-2.032-.533-3.943-1.47-5.607zM16 0C7.163 0 0 7.163 0 16s7.163 16 16 16 16-7.163 16-16S24.837 0 16 0zm0 30C8.268 30 2 23.732 2 16S8.268 2 16 2s14 6.268 14 14-6.268 14-14 14z"/></symbol></svg>