<svg xmlns="http://www.w3.org/2000/svg"><symbol id="icon-camera" viewBox="0 0 32 32"><path d="M9.5 19c0 3.59 2.91 6.5 6.5 6.5s6.5-2.91 6.5-6.5-2.91-6.5-6.5-6.5-6.5 2.91-6.5 6.5zM30 8h-7c-.5-2-1-4-3-4h-8c-2 0-2.5 2-3 4H2c-1.1 0-2 .9-2 2v18c0 1.1.9 2 2 2h28c1.1 0 2-.9 2-2V10c0-1.1-.9-2-2-2zM16 27.875c-4.902 0-8.875-3.973-8.875-8.875s3.973-8.875 8.875-8.875 8.875 3.973 8.875 8.875-3.973 8.875-8.875 8.875zM30 14h-4v-2h4v2z"/></symbol><symbol id="icon-map" viewBox="0 0 32 32"><path d="M0 6l10-4v24L0 30zm22 0v24l-10-3.333v-24zm10-4v24l-8 3.2v-24z"/></symbol><symbol id="icon-paw" viewBox="0 0 32 32"><path d="M16.698 17.25c-3.916 0-7.667 1.752-10.087 8.804s2.92 6.49 6.29 5.033c3.264-1.41 4.506-1.626 8.436.242 3.7 1.758 6.862-.078 5.543-3.93s-5.765-10.15-10.182-10.15zM9.29 1.362c-2.233.534-3.413 3.567-2.636 6.776s3.216 5.378 5.45 4.844l.03-.008c2.233-.534 3.413-3.567 2.636-6.776-.334-1.38-.977-2.57-1.778-3.433-1.06-1.142-2.4-1.715-3.67-1.41-.01 0-.022.004-.032.007zm12.933-.112c-2.247-.47-4.61 1.77-5.28 5.003-.384 1.858-.125 3.64.59 4.91.53.938 1.312 1.595 2.267 1.795l.024.005c2.247.47 4.61-1.77 5.28-5.003s-.61-6.235-2.857-6.705l-.024-.005zM.643 17.93c1.234 2.854 3.836 4.477 5.81 3.624 1.13-.488 1.81-1.68 1.954-3.147.107-1.096-.085-2.345-.613-3.566l-.002-.004c-1.234-2.855-3.836-4.478-5.81-3.625S-.595 15.07.64 17.926v.005zm24.905 3.12c1.124.492 2.454.18 3.62-.71.878-.67 1.662-1.665 2.196-2.89 1.242-2.85.653-5.863-1.317-6.727l-.026-.01c-1.97-.866-4.573.745-5.815 3.597s-.653 5.864 1.317 6.728l.026.01z"/></symbol><symbol id="icon-petfinder" viewBox="0 0 32 32"><path d="M8.914 30.426c-.396-.79-.72-1.452-.72-1.47s.675.07 1.5.193 1.517.208 1.538.187-.39-3.49-.916-7.708l-.954-7.67-2.74-10.102-.984.98c-.68.68-1 .94-1.037.844-.028-.076-.304-.925-.614-1.888-.466-1.447-.536-1.75-.407-1.75.085 0 3.26-.28 7.058-.623C16.745.87 17.8.8 19.794.797h2.253L25.5 2.068l3.097 3.98.335 4.894-1.033 1.854c-.57 1.02-1.063 1.886-1.1 1.926s-.97.508-2.074 1.04l-2.008.966-2.253-.157c-1.24-.087-3-.268-3.91-.404s-1.686-.22-1.72-.187c-.052.052 3.007 11.54 3.102 11.65.018.022.724-.29 1.57-.694s1.57-.735 1.612-.735c.098 0 .776 2.426.698 2.502-.032.03-1.362.172-2.955.314l-2.896.258-3.124 1.292c-1.718.71-3.143 1.292-3.167 1.292s-.368-.647-.764-1.437zM19.7 14.59l1.486-.496.582-.632c1.29-1.4 1.273-1.376 1.582-2.37.162-.52.396-1.594.518-2.385l.223-1.438-.527-1.008c-.474-.904-.637-1.112-1.596-2.036L20.9 3.196 17.457 1.92l-1.755.422c-1.547.372-1.755.445-1.758.614-.003.21.882 11.78.903 11.81.03.045 2.36.296 2.837.307.4.01.884-.106 2.013-.482z"/></symbol><symbol id="icon-rocket" viewBox="0 0 32 32"><path d="M22 2L12 12H6l-6 8s6.357-1.77 10.065-.94L0 32l13.184-10.255C15.024 25.953 12 32 12 32l8-6v-6l10-10 2-10-10 2z"/></symbol></svg>