<?xml version="1.0" encoding="utf-8"?>
<!-- Generated by IcoMoon.io -->
<!DOCTYPE svg PUBLIC "-//W3C//DTD SVG 1.1//EN" "http://www.w3.org/Graphics/SVG/1.1/DTD/svg11.dtd">
<svg version="1.1" xmlns="http://www.w3.org/2000/svg" xmlns:xlink="http://www.w3.org/1999/xlink" width="32" height="32" viewBox="0 0 32 32">
<g id="icomoon-ignore">
	<line stroke-width="1" x1="" y1="" x2="" y2="" stroke="#449FDB" opacity=""></line>
</g>
	<path d="M19.484 8.73c0.22 5.004-3.961 9.227-9.339 9.432s-9.917-3.685-10.137-8.689c-0.22-5.004 3.961-9.227 9.339-9.432 5.296-0.202 9.795 3.571 10.126 8.493zM5.634 15.248c-0.062 0.311-0.092 0.627-0.113 0.943-0.016 0.274-0.017 0.548-0.018 0.822 0.002 0.22 0.003 0.44 0.004 0.66-0.002 0.26-0.005 0.52-0.002 0.779 0.001 0.232 0.003 0.465 0 0.697 0.001 0.219 0.004 0.438 0 0.657 0.020 0.194 0.055 0.392 0.125 0.575 0.102 0.206 0.189 0.428 0.323 0.615 0.105 0.165 0.225 0.317 0.332 0.48 0.132 0.23 0.254 0.466 0.42 0.674 0.125 0.162 0.234 0.311 0.394 0.442 0.243 0.2 0.503 0.378 0.781 0.527 0.198 0.103 0.425 0.133 0.631 0.212 0.109 0.042 0.209 0.102 0.316 0.149 0.327 0.16 0.679 0.278 0.998 0.454 0.223 0.138 0.48 0.204 0.713 0.321 0.069 0.035 0.135 0.076 0.202 0.114 0.070 0.035 0.14 0.069 0.209 0.104 0.3 0.196 0.607 0.395 0.827 0.682 0.183 0.298 0.242 0.651 0.331 0.985 0.116 0.32 0.292 0.615 0.515 0.871 0.156 0.22 0.354 0.392 0.567 0.553 0.316 0.231 0.681 0.363 1.043 0.502 0.536 0.223 1.119 0.313 1.691 0.402 0.452 0.066 0.909 0.088 1.366 0.094 0.463 0.010 0.926-0.018 1.385 0.049 0.688 0.076 1.338 0.319 2.001 0.504 0.538 0.162 1.085 0.317 1.588 0.571 0 0-1.667 1.096-1.667 1.096v0c-0.489-0.243-1.011-0.412-1.536-0.561-0.657-0.188-1.309-0.41-1.995-0.469-0.465-0.033-0.931-0.011-1.397-0.021-0.455-0.019-0.909-0.059-1.358-0.133-0.584-0.103-1.178-0.196-1.728-0.425-0.379-0.144-0.754-0.298-1.080-0.544-0.227-0.169-0.436-0.352-0.596-0.589-0.231-0.288-0.421-0.605-0.548-0.953-0.081-0.307-0.147-0.628-0.306-0.906-0.209-0.257-0.473-0.456-0.76-0.62-0.375-0.188-0.76-0.35-1.137-0.534-0.327-0.155-0.658-0.302-0.991-0.444-0.315-0.138-0.649-0.225-0.959-0.377-0.282-0.166-0.557-0.347-0.811-0.553-0.163-0.144-0.289-0.303-0.413-0.48-0.161-0.218-0.289-0.456-0.432-0.686-0.104-0.164-0.233-0.308-0.331-0.476-0.133-0.204-0.229-0.431-0.339-0.648-0.098-0.202-0.119-0.43-0.162-0.649-0.004-0.219-0.001-0.438 0-0.657-0.003-0.233-0.001-0.465 0-0.698 0.003-0.259-0.001-0.518-0.003-0.777 0-0.221 0-0.443 0.002-0.664 0-0.278 0.001-0.556 0.014-0.834 0.019-0.32 0.058-0.639 0.095-0.957 0 0 1.809-0.884 1.809-0.884zM9.186 16.892c0.201 0.913 0.473 1.809 0.904 2.642 0.116 0.224 0.248 0.438 0.372 0.657 0.567 0.87 1.198 1.727 2.041 2.349 0.542 0.319 1.157 0.47 1.759 0.631 0.59 0.141 1.181 0.27 1.784 0.34 0.375 0.006 0.724 0.074 1.055 0.253 0.469 0.249 0.824 0.652 1.21 1.008 0.347 0.295 0.682 0.595 0.965 0.953 0.238 0.25 0.473 0.501 0.784 0.656 0.3 0.127 0.624 0.143 0.945 0.154 0.388 0.015 0.777-0.030 1.159 0.047 0.545 0.127 1.086 0.271 1.637 0.374 0.458 0.082 0.923 0.108 1.388 0.119 0.282 0.007 0.565-0.002 0.847-0.003 0.344-0.002 0.688 0.005 1.032 0.006 0.367 0.002 0.181 0.001 0.557 0.002 0 0-1.598 1.161-1.598 1.161v0c-0.38 0.001-0.192 0-0.564 0.003-0.351 0.002-0.702 0.009-1.053 0.010-0.28 0.002-0.56-0.004-0.84-0.012-0.465-0.021-0.93-0.068-1.387-0.159-0.55-0.113-1.094-0.254-1.645-0.356-0.384-0.034-0.769-0.006-1.154-0.026-0.344-0.019-0.687-0.068-0.997-0.229-0.318-0.19-0.582-0.447-0.824-0.726-0.273-0.349-0.605-0.64-0.931-0.936-0.374-0.346-0.726-0.731-1.198-0.946-0.324-0.136-0.659-0.182-1.009-0.208-0.6-0.092-1.191-0.231-1.781-0.372-0.623-0.167-1.263-0.326-1.801-0.697-0.823-0.677-1.435-1.566-2.006-2.457-0.335-0.579-0.437-0.721-0.71-1.325-0.287-0.637-0.457-1.312-0.706-1.963 0 0 1.764-0.948 1.764-0.948zM12.436 16.318c1.476 0.528 3.047 0.688 4.587 0.927 1.008 0.116 1.995 0.322 2.938 0.698 0.523 0.258 0.715 0.773 0.916 1.283 0.192 0.567 0.351 1.146 0.688 1.647 0.227 0.336 0.464 0.663 0.731 0.969 0.221 0.254 0.418 0.521 0.663 0.753 0.203 0.147 0.407 0.29 0.601 0.449 0.213 0.166 0.47 0.198 0.73 0.221 0.273 0.018 0.546 0.017 0.819 0.012 0.241-0.001 0.482-0.001 0.723-0.001 0.238-0.001 0.475-0.001 0.713-0.002 0.266 0.004 0.532-0 0.798 0.003 0.332-0.017 0.654 0.008 0.974 0.098 0.188 0.050 0.371 0.11 0.559 0.158 0 0-1.637 1.128-1.637 1.128v0c-0.189-0.049-0.376-0.103-0.566-0.149-0.315-0.061-0.63-0.069-0.95-0.058-0.269 0.003-0.537-0.001-0.806 0.003-0.236-0.001-0.471-0.001-0.707-0.001-0.243 0.001-0.486 0.003-0.729 0.005-0.275-0.004-0.55-0.007-0.824-0.037-0.291-0.042-0.565-0.118-0.797-0.309-0.203-0.155-0.408-0.306-0.604-0.469-0.245-0.239-0.45-0.51-0.667-0.774-0.266-0.317-0.52-0.643-0.737-0.996-0.326-0.523-0.494-1.107-0.7-1.685-0.184-0.458-0.353-0.923-0.826-1.152-0.903-0.381-1.863-0.573-2.83-0.719-1.57-0.267-3.157-0.461-4.698-0.878 0 0 1.638-1.122 1.638-1.122zM15.963 14.188c0.556 0.029 1.113-0.009 1.668 0.032 0.566 0.083 1.111 0.263 1.619 0.521 0.403 0.197 0.775 0.446 1.152 0.686 0.307 0.2 0.595 0.417 0.938 0.551 0.304 0.105 0.625 0.109 0.943 0.117 0.431 0.008 0.863 0.002 1.294 0.001 0.479-0.002 0.956-0.022 1.428 0.067 0.575 0.058 1.038 0.377 1.519 0.666 0.46 0.263 0.958 0.45 1.44 0.668 0.287 0.107 0.56 0.242 0.859 0.313 0.218 0.046 0.443 0.042 0.664 0.044 0.196-0.013 0.377 0.090 0.548 0.173 0 0-1.668 1.109-1.668 1.109v0c-0.165-0.065-0.324-0.121-0.505-0.105-0.234-0.005-0.47-0.012-0.695-0.085-0.296-0.092-0.575-0.23-0.86-0.353-0.481-0.229-0.986-0.408-1.438-0.693-0.471-0.277-0.93-0.551-1.489-0.597-0.47-0.062-0.942-0.038-1.414-0.038-0.435 0.002-0.869 0.003-1.304-0.002-0.337-0.013-0.673-0.040-0.986-0.178-0.34-0.158-0.641-0.376-0.953-0.581-0.366-0.241-0.732-0.482-1.126-0.676-0.495-0.238-1.025-0.403-1.574-0.456-0.563-0.026-1.127-0.015-1.691-0.001 0 0 1.629-1.184 1.629-1.184zM17.071 11.505c0.803 0.095 1.614 0.103 2.422 0.117 0.787 0.015 1.573-0.013 2.358 0.048 0.585 0.109 1.086 0.423 1.56 0.767 0.409 0.327 0.831 0.637 1.248 0.953 0.305 0.239 0.626 0.405 1.004 0.487 0.336 0.052 0.677 0.051 1.017 0.049 0.291 0.026 0.569-0.036 0.854-0.078 0.329-0.021 0.649-0.079 0.974-0.133 0.275-0.047 0.554-0.060 0.833-0.067 0.315 0.004 0.632-0.018 0.945 0.025 0.32 0.040 0.614 0.182 0.917 0.283 0.184 0.114 0.376 0.185 0.588 0.221 0.115 0.010 0.054 0.006 0.183 0.011 0 0-1.636 1.17-1.636 1.17v0c-0.144-0.016-0.077-0.005-0.204-0.032-0.209-0.057-0.398-0.153-0.592-0.248-0.288-0.106-0.576-0.223-0.886-0.246-0.312-0.017-0.625-0.006-0.938 0.002-0.272 0.012-0.542 0.034-0.81 0.083-0.325 0.055-0.651 0.089-0.977 0.132-0.29 0.047-0.579 0.066-0.873 0.052-0.349-0.006-0.7-0.013-1.041-0.092-0.386-0.114-0.723-0.307-1.038-0.558-0.417-0.312-0.817-0.645-1.234-0.957-0.453-0.321-0.939-0.606-1.501-0.678-0.772-0.061-1.545-0.044-2.319-0.062-0.833-0.018-1.668-0.028-2.499-0.092 0 0 1.643-1.158 1.643-1.158zM17.892 8.988c0.718-0.166 1.445-0.295 2.178-0.375 0.754-0.044 1.513-0.151 2.265-0.045 0.547 0.121 1.071 0.331 1.558 0.606 0.46 0.249 0.951 0.435 1.434 0.635 0.404 0.209 0.833 0.353 1.256 0.514 0.376 0.095 0.732 0.248 1.102 0.362 0.299 0.089 0.611 0.106 0.92 0.115 0.289 0.006 0.579 0.004 0.868 0.001 0.247 0.034 0.446-0.060 0.664-0.153 0.614-0.233 1.727-0.922-1.432 0.842-0.037 0.021 0.067-0.052 0.099-0.078 0.076-0.062 0.15-0.127 0.226-0.191 0.184-0.154 0.373-0.303 0.543-0.473 0.195-0.191 0.244-0.453 0.28-0.713 0.034-0.285 0.037-0.572 0.033-0.858 0.001-0.276-0.001-0.552-0.001-0.828 0.011-0.214-0.047-0.415-0.123-0.612-0.040-0.123-0.069-0.25-0.096-0.377 0 0 1.772-0.946 1.772-0.946v0c0.021 0.116 0.043 0.232 0.081 0.344 0.086 0.217 0.163 0.443 0.152 0.681 0 0.276 0.001 0.552 0.003 0.827-0.005 0.294 0.004 0.589-0.022 0.883-0.036 0.282-0.061 0.577-0.221 0.82-0.161 0.191-0.354 0.342-0.54 0.508-0.109 0.078-0.204 0.197-0.317 0.265-0.855 0.518-1.268 0.872-2.017 1.149-0.229 0.087-0.464 0.102-0.708 0.091-0.291-0.001-0.582 0.001-0.873-0.010-0.32-0.021-0.639-0.057-0.944-0.164-0.367-0.126-0.733-0.258-1.104-0.372-0.424-0.157-0.841-0.326-1.246-0.529-0.489-0.202-0.993-0.382-1.45-0.651-0.474-0.256-0.981-0.455-1.514-0.545-0.735-0.080-1.477 0.002-2.211 0.065-0.746 0.097-1.486 0.233-2.213 0.426 0 0 1.594-1.213 1.594-1.213zM10.847 16.769c0.281 0.248 0.59 0.453 0.908 0.649 0.203 0.104 0.338 0.285 0.499 0.439 0.053 0.051 0.227 0.185 0.282 0.228 0.277 0.238 0.527 0.504 0.782 0.765 0.23 0.209 0.427 0.446 0.62 0.688 0.187 0.198 0.45 0.294 0.688 0.417 0.212 0.174 0.473 0.235 0.714 0.343 0.22 0.082 0.434 0.17 0.665 0.218 0.248 0.108 0.506 0.145 0.773 0.167 0.238 0.075 0.451 0.189 0.696 0.247 0.231 0.017 0.454 0.083 0.67 0.164 0.281 0.073 0.411 0.168 0.567 0.41 0.139 0.213 0.154 0.47 0.245 0.701 0.084 0.174 0.122 0.408 0.314 0.493 0.164 0.119 0.303 0.268 0.452 0.405 0.159 0.106 0.313 0.218 0.5 0.262 0.22 0.054 0.434 0.122 0.66 0.157 0 0-1.649 1.153-1.649 1.153v0c-0.228-0.049-0.45-0.121-0.675-0.18-0.199-0.081-0.381-0.196-0.548-0.332-0.143-0.129-0.271-0.276-0.437-0.376-0.195-0.156-0.281-0.374-0.369-0.602-0.092-0.219-0.11-0.458-0.229-0.666-0.133-0.195-0.269-0.232-0.493-0.298-0.22-0.063-0.44-0.117-0.666-0.154-0.227-0.070-0.435-0.192-0.671-0.224-0.272-0.034-0.532-0.098-0.791-0.187-0.234-0.064-0.46-0.152-0.685-0.242-0.253-0.095-0.487-0.216-0.716-0.361-0.264-0.132-0.546-0.256-0.737-0.49-0.183-0.24-0.385-0.462-0.6-0.674-0.25-0.254-0.496-0.513-0.767-0.745-0.264-0.211-0.487-0.467-0.775-0.646-0.318-0.211-0.626-0.432-0.927-0.666 0 0 1.702-1.064 1.702-1.064z" fill="#000000"></path>
</svg>
