<svg xmlns="http://www.w3.org/2000/svg" xmlns:xlink="http://www.w3.org/1999/xlink" version="1.1" id="Layer_1" x="0px" y="0px" width="86.9px" height="100px" viewBox="-1.163 -16.654 86.9 135.0" enable-background="new -5.508 -6.654 86.9 100" xml:space="preserve">
<path d="M34.054,77.245l-16.37,6.277l-1.636-2.867l18.006-11.05V63.33h-34.65c-2.728,0-4.912-2.182-4.912-4.911  c0-2.591,1.91-4.638,4.5-4.909V8.353c-2.59-0.135-4.5-2.319-4.5-4.775c0-2.728,2.184-4.912,4.912-4.912h35.605l2.047-5.32h1.229  l2.042,5.32h36.154c2.728,0,4.911,2.184,4.911,4.912c0,2.73-2.184,4.912-4.911,4.912v45.02c2.728,0,4.911,2.182,4.911,4.909  c0,2.729-2.184,4.911-4.911,4.911H40.738v6.275l18.144,11.05l-1.636,2.867l-16.508-6.277v12.551c0,1.909-1.498,3.55-3.408,3.55  c-2.047,0-3.276-1.641-3.276-3.55V77.245L34.054,77.245z M70.203,8.899H5.27v44.2h64.933V8.899z"/>
<text x="-5.508" y="110.846" font-size="5.0" font-weight="bold" font-family="Helvetica Neue, Helvetica, Arial-Unicode, Arial, Sans-serif" fill="#000000">Created by John Caserta</text><text x="-5.508" y="115.846" font-size="5.0" font-weight="bold" font-family="Helvetica Neue, Helvetica, Arial-Unicode, Arial, Sans-serif" fill="#000000">from the Noun Project</text></svg>