<svg xmlns="http://www.w3.org/2000/svg" xmlns:xlink="http://www.w3.org/1999/xlink" version="1.1" id="Layer_1" x="0px" y="0px" viewBox="5.0 -10.0 100.0 135.0" enable-background="new 0 0 100 100" xml:space="preserve" height="100px" width="100px">
<g>
	<g>
		<path d="M90.7,70.4h-3V11.2h3c0.8,0,1.4-0.6,1.4-1.4c0-0.8-0.7-1.4-1.4-1.4H51.4V6.4C51.4,5.6,50.8,5,50,5c-0.8,0-1.4,0.6-1.4,1.4    v1.8H9.3c-0.8,0-1.4,0.6-1.4,1.4c0,0.8,0.6,1.4,1.4,1.4h3v59.2h-3c-0.8,0-1.4,0.6-1.4,1.4c0,0.8,0.6,1.4,1.4,1.4h28.9L18.9,92.5    c-0.6,0.6-0.6,1.5,0,2c0.3,0.3,0.7,0.4,1,0.4c0.4,0,0.7-0.1,1-0.4l21.3-21.3h6.3v16.2c0,0.8,0.6,1.4,1.4,1.4    c0.8,0,1.4-0.6,1.4-1.4V73.3h6.3l21.3,21.3c0.3,0.3,0.7,0.4,1,0.4c0.4,0,0.7-0.1,1-0.4c0.6-0.6,0.6-1.5,0-2L61.9,73.3h28.9    c0.8,0,1.4-0.6,1.4-1.4C92.2,71,91.5,70.4,90.7,70.4z M84.9,70.4H15.1V11.2h69.8V70.4z"/>
	</g>
</g>
<text x="0.0" y="117.5" font-size="5.0" font-weight="bold" font-family="Helvetica Neue, Helvetica, Arial-Unicode, Arial, Sans-serif" fill="#000000">Created by Garrett Knoll</text><text x="0.0" y="122.5" font-size="5.0" font-weight="bold" font-family="Helvetica Neue, Helvetica, Arial-Unicode, Arial, Sans-serif" fill="#000000">from the Noun Project</text></svg>