<svg xmlns="http://www.w3.org/2000/svg" xmlns:xlink="http://www.w3.org/1999/xlink" version="1.1" id="Your_Icon" x="0px" y="0px" width="100px" height="100px" viewBox="5.0 -10.0 100.0 135.0" enable-background="new 0 0 100 100" xml:space="preserve">
<g>
	<g>
		<path d="M91.347,18.091H53.658v-5.909c0-2.018-1.644-3.653-3.653-3.653c-2.018,0-3.653,1.635-3.653,3.653v5.909H8.653    C6.644,18.091,5,19.726,5,21.744c0,2.018,1.644,3.653,3.653,3.653h4.557v43.836c0,2.018,1.635,3.653,3.653,3.653H39.53    L22.078,84.794c-1.662,1.142-2.091,3.416-0.959,5.078c0.712,1.041,1.854,1.598,3.023,1.598c0.712,0,1.425-0.21,2.055-0.639    l20.155-13.762v10.749c0,2.018,1.635,3.653,3.653,3.653c2.009,0,3.653-1.635,3.653-3.653V77.059l20.164,13.772    c0.63,0.429,1.352,0.639,2.055,0.639c1.169,0,2.319-0.557,3.023-1.598c1.142-1.662,0.712-3.936-0.959-5.078L60.489,72.886h22.648    c2.018,0,3.653-1.635,3.653-3.653V25.397h4.557c2.018,0,3.653-1.635,3.653-3.653C95,19.726,93.365,18.091,91.347,18.091z     M79.484,65.58H20.516V25.397h58.968V65.58z"/>
	</g>
</g>
</svg>